{
  "accessors": [
    {
      "bufferView": 2,
      "componentType": 5126,
      "count": 7722,
      "max": [
        8.611413955688477,
        7.876613616943359,
        1.3804733753204346
      ],
      "min": [
        6.2172136306762695,
        3.1677000522613525,
        0.07405886799097061
      ],
      "type": "VEC3"
    },
    {
      "bufferView": 2,
      "byteOffset": 92664,
      "componentType": 5126,
      "count": 7722,
      "max": [
        1.0,
        1.0,
        1.0
      ],
      "min": [
        -1.0,
        -1.0,
        -1.0
      ],
      "type": "VEC3"
    },
    {
      "bufferView": 1,
      "componentType": 5126,
      "count": 7722,
      "max": [
        0.9980469942092896,
        -0.0007809996604919434
      ],
      "min": [
        0.0008440000237897038,
        -0.9988960027694702
      ],
      "type": "VEC2"
    },
    {
      "bufferView": 0,
      "componentType": 5125,
      "count": 21564,
      "type": "SCALAR"
    },
    {
      "bufferView": 2,
      "byteOffset": 185328,
      "componentType": 5126,
      "count": 1752,
      "max": [
        8.57472038269043,
        7.468326568603516,
        0.8569065928459167
      ],
      "min": [
        6.253902912139893,
        3.6833860874176025,
        0.00787289533764124
      ],
      "type": "VEC3"
    },
    {
      "bufferView": 2,
      "byteOffset": 206352,
      "componentType": 5126,
      "count": 1752,
      "max": [
        1.0,
        0.9986093044281006,
        0.9986093044281006
      ],
      "min": [
        -1.0,
        -0.9986096620559692,
        -0.9986094236373901
      ],
      "type": "VEC3"
    },
    {
      "bufferView": 1,
      "byteOffset": 61776,
      "componentType": 5126,
      "count": 1752,
      "max": [
        2.0,
        -0.00027501583099365234
      ],
      "min": [
        0.0,
        -0.9716799855232239
      ],
      "type": "VEC2"
    },
    {
      "bufferView": 0,
      "byteOffset": 86256,
      "componentType": 5125,
      "count": 6240,
      "type": "SCALAR"
    },
    {
      "bufferView": 2,
      "byteOffset": 227376,
      "componentType": 5126,
      "count": 88,
      "max": [
        8.358763694763184,
        3.456789255142212,
        0.5442216992378235
      ],
      "min": [
        6.4698638916015625,
        3.4105913639068604,
        0.3179188072681427
      ],
      "type": "VEC3"
    },
    {
      "bufferView": 2,
      "byteOffset": 228432,
      "componentType": 5126,
      "count": 88,
      "max": [
        0.33593037724494934,
        -0.9418858885765076,
        0.08531592041254044
      ],
      "min": [
        -0.33593061566352844,
        -0.999968945980072,
        -0.09172550588846207
      ],
      "type": "VEC3"
    },
    {
      "bufferView": 1,
      "byteOffset": 75792,
      "componentType": 5126,
      "count": 88,
      "max": [
        0.9920639991760254,
        -0.007688999176025391
      ],
      "min": [
        0.006713000126183033,
        -0.9920639991760254
      ],
      "type": "VEC2"
    },
    {
      "bufferView": 0,
      "byteOffset": 111216,
      "componentType": 5125,
      "count": 378,
      "type": "SCALAR"
    },
    {
      "bufferView": 2,
      "byteOffset": 229488,
      "componentType": 5126,
      "count": 90,
      "max": [
        8.44299030303955,
        7.854196548461914,
        0.585932731628418
      ],
      "min": [
        6.3856377601623535,
        7.788013458251953,
        0.49833670258522034
      ],
      "type": "VEC3"
    },
    {
      "bufferView": 2,
      "byteOffset": 230568,
      "componentType": 5126,
      "count": 90,
      "max": [
        0.8972511887550354,
        0.986362099647522,
        0.2849172353744507
      ],
      "min": [
        -0.8972511887550354,
        0.43802735209465027,
        -0.20969648659229279
      ],
      "type": "VEC3"
    },
    {
      "bufferView": 1,
      "byteOffset": 76496,
      "componentType": 5126,
      "count": 90,
      "max": [
        0.9026560187339783,
        -0.009742975234985352
      ],
      "min": [
        0.07648400217294693,
        -0.9912109971046448
      ],
      "type": "VEC2"
    },
    {
      "bufferView": 0,
      "byteOffset": 112728,
      "componentType": 5125,
      "count": 336,
      "type": "SCALAR"
    },
    {
      "bufferView": 2,
      "byteOffset": 231648,
      "componentType": 5126,
      "count": 36,
      "max": [
        7.916236877441406,
        5.1082916259765625,
        1.1224454641342163
      ],
      "min": [
        6.912386894226074,
        4.630240440368652,
        0.8241316676139832
      ],
      "type": "VEC3"
    },
    {
      "bufferView": 2,
      "byteOffset": 232080,
      "componentType": 5126,
      "count": 36,
      "max": [
        0.6635479927062988,
        -0.44899818301200867,
        0.7251073122024536
      ],
      "min": [
        -0.6635500192642212,
        -0.6947500705718994,
        0.5984163880348206
      ],
      "type": "VEC3"
    },
    {
      "bufferView": 1,
      "byteOffset": 77216,
      "componentType": 5126,
      "count": 36,
      "max": [
        1.0,
        0.0
      ],
      "min": [
        0.0,
        -1.0
      ],
      "type": "VEC2"
    },
    {
      "bufferView": 0,
      "byteOffset": 114072,
      "componentType": 5125,
      "count": 144,
      "type": "SCALAR"
    }
  ],
  "asset": {
    "extras": {
      "author": "LukeMcQueen02 (https://sketchfab.com/lukemcqueen02)",
      "license": "CC-BY-4.0 (http://creativecommons.org/licenses/by/4.0/)",
      "source": "https://sketchfab.com/3d-models/carla-veloso-f2dd820f09ba45a98e61c10935365de9",
      "title": "Carla Veloso"
    },
    "generator": "Sketchfab-16.72.0",
    "version": "2.0"
  },
  "bufferViews": [
    {
      "buffer": 0,
      "byteLength": 114648,
      "name": "floatBufferViews",
      "target": 34963
    },
    {
      "buffer": 0,
      "byteLength": 77504,
      "byteOffset": 114648,
      "byteStride": 8,
      "name": "floatBufferViews",
      "target": 34962
    },
    {
      "buffer": 0,
      "byteLength": 232512,
      "byteOffset": 192152,
      "byteStride": 12,
      "name": "floatBufferViews",
      "target": 34962
    }
  ],
  "buffers": [
    {
      "byteLength": 424664,
      "uri": "scene.bin"
    }
  ],
  "images": [
    {
      "uri": "textures/material_0_baseColor.png"
    },
    {
      "uri": "textures/material_1_baseColor.png"
    },
    {
      "uri": "textures/material_2_baseColor.png"
    },
    {
      "uri": "textures/material_3_baseColor.png"
    },
    {
      "uri": "textures/material_4_baseColor.jpeg"
    },
    {
      "uri": "textures/material_4_metallicRoughness.png"
    }
  ],
  "materials": [
    {
      "doubleSided": true,
      "name": "material_0",
      "pbrMetallicRoughness": {
        "baseColorTexture": {
          "index": 0
        },
        "metallicFactor": 0.2,
        "roughnessFactor": 0.0
      }
    },
    {
      "doubleSided": true,
      "name": "material_1",
      "pbrMetallicRoughness": {
        "baseColorTexture": {
          "index": 1
        },
        "metallicFactor": 0.2,
        "roughnessFactor": 0.5
      }
    },
    {
      "doubleSided": true,
      "name": "material_2",
      "pbrMetallicRoughness": {
        "baseColorTexture": {
          "index": 2
        },
        "metallicFactor": 0.0
      }
    },
    {
      "doubleSided": true,
      "name": "material_3",
      "pbrMetallicRoughness": {
        "baseColorTexture": {
          "index": 3
        },
        "metallicFactor": 0.0
      }
    },
    {
      "doubleSided": true,
      "name": "material_4",
      "pbrMetallicRoughness": {
        "baseColorTexture": {
          "index": 4
        },
        "metallicFactor": 0.0,
        "metallicRoughnessTexture": {
          "index": 5
        }
      }
    }
  ],
  "meshes": [
    {
      "name": "Object_0",
      "primitives": [
        {
          "attributes": {
            "NORMAL": 1,
            "POSITION": 0,
            "TEXCOORD_0": 2
          },
          "indices": 3,
          "material": 0,
          "mode": 4
        }
      ]
    },
    {
      "name": "Object_1",
      "primitives": [
        {
          "attributes": {
            "NORMAL": 5,
            "POSITION": 4,
            "TEXCOORD_0": 6
          },
          "indices": 7,
          "material": 1,
          "mode": 4
        }
      ]
    },
    {
      "name": "Object_2",
      "primitives": [
        {
          "attributes": {
            "NORMAL": 9,
            "POSITION": 8,
            "TEXCOORD_0": 10
          },
          "indices": 11,
          "material": 2,
          "mode": 4
        }
      ]
    },
    {
      "name": "Object_3",
      "primitives": [
        {
          "attributes": {
            "NORMAL": 13,
            "POSITION": 12,
            "TEXCOORD_0": 14
          },
          "indices": 15,
          "material": 3,
          "mode": 4
        }
      ]
    },
    {
      "name": "Object_4",
      "primitives": [
        {
          "attributes": {
            "NORMAL": 17,
            "POSITION": 16,
            "TEXCOORD_0": 18
          },
          "indices": 19,
          "material": 4,
          "mode": 4
        }
      ]
    }
  ],
  "nodes": [
    {
      "children": [
        1
      ],
      "matrix": [
        1.0,
        0.0,
        0.0,
        0.0,
        0.0,
        2.220446049250313e-16,
        -1.0,
        0.0,
        0.0,
        1.0,
        2.220446049250313e-16,
        0.0,
        0.0,
        0.0,
        0.0,
        1.0
      ],
      "name": "Sketchfab_model"
    },
    {
      "children": [
        2
      ],
      "name": "root"
    },
    {
      "children": [
        3
      ],
      "matrix": [
        1.0,
        0.0,
        0.0,
        0.0,
        0.0,
        2.220446049250313e-16,
        1.0,
        0.0,
        0.0,
        -1.0,
        2.220446049250313e-16,
        0.0,
        0.0,
        0.0,
        0.0,
        1.0
      ],
      "name": "GLTF_SceneRootNode"
    },
    {
      "children": [
        4
      ],
      "matrix": [
        1.0,
        0.0,
        0.0,
        0.0,
        0.0,
        2.220446049250313e-16,
        -1.0,
        0.0,
        0.0,
        1.0,
        2.220446049250313e-16,
        0.0,
        0.0,
        0.0,
        0.0,
        1.0
      ],
      "name": "Sketchfab_model_0"
    },
    {
      "children": [
        5,
        7,
        9,
        11,
        13
      ],
      "name": "Carla_Veloso.obj.cleaner.materialmerger.gles_1"
    },
    {
      "children": [
        6
      ],
      "name": "Object_2_2"
    },
    {
      "mesh": 0,
      "name": "Object_6"
    },
    {
      "children": [
        8
      ],
      "name": "Object_3_3"
    },
    {
      "mesh": 1,
      "name": "Object_8"
    },
    {
      "children": [
        10
      ],
      "name": "Object_4_4"
    },
    {
      "mesh": 2,
      "name": "Object_10"
    },
    {
      "children": [
        12
      ],
      "name": "Object_5_5"
    },
    {
      "mesh": 3,
      "name": "Object_12"
    },
    {
      "children": [
        14
      ],
      "name": "Object_6_6"
    },
    {
      "mesh": 4,
      "name": "Object_14"
    }
  ],
  "samplers": [
    {
      "magFilter": 9729,
      "minFilter": 9987,
      "wrapS": 10497,
      "wrapT": 10497
    }
  ],
  "scene": 0,
  "scenes": [
    {
      "name": "Sketchfab_Scene",
      "nodes": [
        0
      ]
    }
  ],
  "textures": [
    {
      "sampler": 0,
      "source": 0
    },
    {
      "sampler": 0,
      "source": 1
    },
    {
      "sampler": 0,
      "source": 2
    },
    {
      "sampler": 0,
      "source": 3
    },
    {
      "sampler": 0,
      "source": 4
    },
    {
      "sampler": 0,
      "source": 5
    }
  ]
}
