{
	"asset":{
		"version":"2.0",
		"generator":"Sketchfab-16.68.0",
		"copyright":""
	},
	"scenes":[{
		"nodes":[0]
	}],
	"nodes":[{
		"name":"Sketchfab_Scene",
		"children":[1]
	},
	{
		"rotation":[0.7071067690849304,
		0.0,
		0.0,
		-0.7071067690849304],
		"name":"Sketchfab_model",
		"translation":[-4.763901233673096,
		-0.4969317615032196,
		0.3782571852207184],
		"scale":[1.0,
		1.0,
		1.0],
		"children":[2]
	},
	{
		"name":"root",
		"children":[3]
	},
	{
		"rotation":[-0.7071067690849304,
		0.0,
		0.0,
		-0.7071067690849304],
		"name":"GLTF_SceneRootNode",
		"translation":[0.0,
		0.0,
		0.0],
		"scale":[1.0,
		1.0,
		1.0],
		"children":[4]
	},
	{
		"rotation":[0.7071067690849304,
		0.0,
		0.0,
		-0.7071067690849304],
		"name":"Sketchfab_model_0",
		"translation":[0.0,
		0.0,
		0.0],
		"scale":[1.0,
		1.0,
		1.0],
		"children":[5]
	},
	{
		"name":"root_1",
		"children":[6]
	},
	{
		"rotation":[-0.7071067690849304,
		0.0,
		0.0,
		-0.7071067690849304],
		"name":"GLTF_SceneRootNode_2",
		"translation":[0.0,
		0.0,
		0.0],
		"scale":[1.0,
		1.0,
		1.0],
		"children":[7,
		8,
		9,
		10]
	},
	{
		"rotation":[0.7071067690849304,
		0.0,
		0.0,
		-0.7071067690849304],
		"name":"_0_3",
		"translation":[-0.33944904804229739,
		0.011843129992485047,
		10.225177764892579],
		"scale":[1.0,
		0.9999998807907105,
		0.9999998807907105],
		"children":[11]
	},
	{
		"rotation":[0.7071067690849304,
		0.0,
		0.0,
		-0.7071067690849304],
		"name":"_1_5",
		"translation":[-0.33944904804229739,
		0.011843129992485047,
		10.225177764892579],
		"scale":[1.0,
		0.9999998807907105,
		0.9999998807907105],
		"children":[12]
	},
	{
		"rotation":[0.7071067690849304,
		0.0,
		0.0,
		-0.7071067690849304],
		"name":"_2_7",
		"translation":[-0.33944904804229739,
		0.011843129992485047,
		10.225177764892579],
		"scale":[1.0,
		0.9999998807907105,
		0.9999998807907105],
		"children":[13]
	},
	{
		"rotation":[0.7071067690849304,
		0.0,
		0.0,
		-0.7071067690849304],
		"name":"_3_9",
		"translation":[-0.33944904804229739,
		0.011843129992485047,
		10.225177764892579],
		"scale":[1.0,
		0.9999998807907105,
		0.9999998807907105],
		"children":[14]
	},
	{
		"name":"Object_4_4",
		"children":[15]
	},
	{
		"name":"Object_6_6",
		"children":[16]
	},
	{
		"name":"Object_8_8",
		"children":[17]
	},
	{
		"name":"Object_10_10",
		"children":[18]
	},
	{
		"mesh":0,
		"name":"Object_8"
	},
	{
		"mesh":1,
		"name":"Object_11"
	},
	{
		"mesh":2,
		"name":"Object_14"
	},
	{
		"mesh":3,
		"name":"Object_17"
	}],
	"meshes":[{
		"name":"Object_8",
		"primitives":[{
			"attributes":{
				"POSITION":1,
				"NORMAL":2,
				"TEXCOORD_0":3
			},
			"indices":0,
			"material":0
		}]
	},
	{
		"name":"Object_11",
		"primitives":[{
			"attributes":{
				"POSITION":5,
				"NORMAL":6,
				"TEXCOORD_0":7
			},
			"indices":4,
			"material":1
		}]
	},
	{
		"name":"Object_14",
		"primitives":[{
			"attributes":{
				"POSITION":9,
				"NORMAL":10,
				"TEXCOORD_0":11
			},
			"indices":8,
			"material":2
		}]
	},
	{
		"name":"Object_17",
		"primitives":[{
			"attributes":{
				"POSITION":13,
				"NORMAL":14,
				"TEXCOORD_0":15
			},
			"indices":12,
			"material":3
		}]
	}],
	"accessors":[{
		"bufferView":0,
		"type":"SCALAR",
		"componentType":5123,
		"count":21300,
		"byteOffset":0,
		"min":[0],
		"max":[21299]
	},
	{
		"bufferView":1,
		"type":"VEC3",
		"componentType":5126,
		"count":21300,
		"byteOffset":0,
		"min":[3.87701416015625,
		7.896411895751953,
		0.06470996886491776],
		"max":[6.329686164855957,
		13.149797439575196,
		1.404600977897644]
	},
	{
		"bufferView":1,
		"type":"VEC3",
		"componentType":5126,
		"count":21300,
		"byteOffset":12,
		"min":[-1.0,
		-1.0,
		-1.0],
		"max":[1.0,
		1.0,
		1.0]
	},
	{
		"bufferView":1,
		"type":"VEC2",
		"componentType":5126,
		"count":21300,
		"byteOffset":24,
		"min":[0.0012959837913513184,
		0.0009930133819580079],
		"max":[0.998046875,
		0.998046875]
	},
	{
		"bufferView":2,
		"type":"SCALAR",
		"componentType":5123,
		"count":36,
		"byteOffset":0,
		"min":[0],
		"max":[35]
	},
	{
		"bufferView":3,
		"type":"VEC3",
		"componentType":5126,
		"count":36,
		"byteOffset":0,
		"min":[4.109840393066406,
		8.054633140563965,
		0.12476993352174759],
		"max":[6.096859931945801,
		8.080056190490723,
		0.17542991042137147]
	},
	{
		"bufferView":3,
		"type":"VEC3",
		"componentType":5126,
		"count":36,
		"byteOffset":12,
		"min":[-0.12428474426269531,
		-0.9995404481887817,
		0.0],
		"max":[0.12428474426269531,
		-0.9922466278076172,
		0.0004687604960054159]
	},
	{
		"bufferView":3,
		"type":"VEC2",
		"componentType":5126,
		"count":36,
		"byteOffset":24,
		"min":[0.000030517578125,
		0.000030517578125],
		"max":[0.9965667724609375,
		1.0]
	},
	{
		"bufferView":4,
		"type":"SCALAR",
		"componentType":5123,
		"count":7776,
		"byteOffset":0,
		"min":[0],
		"max":[7775]
	},
	{
		"bufferView":5,
		"type":"VEC3",
		"componentType":5126,
		"count":7776,
		"byteOffset":0,
		"min":[3.7931933403015138,
		8.624567031860352,
		-0.010413531213998795],
		"max":[6.413506984710693,
		12.732087135314942,
		0.8711722493171692]
	},
	{
		"bufferView":5,
		"type":"VEC3",
		"componentType":5126,
		"count":7776,
		"byteOffset":12,
		"min":[-1.0,
		-0.9999998807907105,
		-0.9999998807907105],
		"max":[1.0,
		0.9999998807907105,
		0.9999998807907105]
	},
	{
		"bufferView":5,
		"type":"VEC2",
		"componentType":5126,
		"count":7776,
		"byteOffset":24,
		"min":[-1.734375,
		0.027356624603271486],
		"max":[2.0,
		0.9990081787109375]
	},
	{
		"bufferView":6,
		"type":"SCALAR",
		"componentType":5123,
		"count":96,
		"byteOffset":0,
		"min":[0],
		"max":[95]
	},
	{
		"bufferView":7,
		"type":"VEC3",
		"componentType":5126,
		"count":96,
		"byteOffset":0,
		"min":[4.706676959991455,
		10.158721923828125,
		0.8312209844589233],
		"max":[5.500023365020752,
		10.508599281311036,
		1.0382601022720338]
	},
	{
		"bufferView":7,
		"type":"VEC3",
		"componentType":5126,
		"count":96,
		"byteOffset":12,
		"min":[-0.8488284349441528,
		-0.8240519762039185,
		0.3785163462162018],
		"max":[0.8487793207168579,
		-0.36738768219947817,
		0.5756374001502991]
	},
	{
		"bufferView":7,
		"type":"VEC2",
		"componentType":5126,
		"count":96,
		"byteOffset":24,
		"min":[0.0009489953517913818,
		-0.08192634582519531],
		"max":[0.9986419677734375,
		0.864837646484375]
	}],
	"bufferViews":[{
		"buffer":0,
		"byteOffset":0,
		"byteLength":42600,
		"target":34963
	},
	{
		"buffer":0,
		"byteOffset":42600,
		"byteLength":681600,
		"target":34962,
		"byteStride":32
	},
	{
		"buffer":1,
		"byteOffset":0,
		"byteLength":72,
		"target":34963
	},
	{
		"buffer":1,
		"byteOffset":72,
		"byteLength":1152,
		"target":34962,
		"byteStride":32
	},
	{
		"buffer":2,
		"byteOffset":0,
		"byteLength":15552,
		"target":34963
	},
	{
		"buffer":2,
		"byteOffset":15552,
		"byteLength":248832,
		"target":34962,
		"byteStride":32
	},
	{
		"buffer":3,
		"byteOffset":0,
		"byteLength":192,
		"target":34963
	},
	{
		"buffer":3,
		"byteOffset":192,
		"byteLength":3072,
		"target":34962,
		"byteStride":32
	}],
	"buffers":[{
		"uri":"data:application/octet-stream;base64,",
		"byteLength":724200
	},
	{
		"uri":"data:application/octet-stream;base64,",
		"byteLength":1224
	},
	{
		"uri":"data:application/octet-stream;base64,",
		"byteLength":264384
	},
	{
		"uri":"data:application/octet-stream;base64,",
		"byteLength":3264
	}],
	"images":[{
		"uri":"data:image/png;base64,"
	},
	{
		"uri":"data:image/png;base64,"
	},
	{
		"uri":"data:image/png;base64,"
	},
	{
		"uri":"data:image/png;base64,"
	}],
	"samplers":[{
		"magFilter":9729,
		"minFilter":9729,
		"wrapS":10497,
		"wrapT":10497
	},
	{
		"magFilter":9729,
		"minFilter":9729,
		"wrapS":10497,
		"wrapT":10497
	},
	{
		"magFilter":9729,
		"minFilter":9729,
		"wrapS":10497,
		"wrapT":10497
	},
	{
		"magFilter":9729,
		"minFilter":9729,
		"wrapS":10497,
		"wrapT":10497
	}],
	"textures":[{
		"sampler":0,
		"source":0
	},
	{
		"sampler":1,
		"source":1
	},
	{
		"sampler":2,
		"source":2
	},
	{
		"sampler":3,
		"source":3
	}],
	"materials":[{
		"pbrMetallicRoughness":{
			"baseColorTexture":{
				"index":0
			},
			"baseColorFactor":[1.0,
			1.0,
			1.0,
			1.0],
			"metallicFactor":0.0,
			"roughnessFactor":0.0
		},
		"emissiveFactor":[0.0,
		0.0,
		0.0],
		"alphaMode":"OPAQUE",
		"doubleSided":true,
		"name":"material_0"
	},
	{
		"pbrMetallicRoughness":{
			"baseColorTexture":{
				"index":1
			},
			"baseColorFactor":[1.0,
			1.0,
			1.0,
			1.0],
			"metallicFactor":0.0,
			"roughnessFactor":0.801182
		},
		"emissiveFactor":[0.0,
		0.0,
		0.0],
		"alphaMode":"OPAQUE",
		"doubleSided":true,
		"name":"material_1"
	},
	{
		"pbrMetallicRoughness":{
			"baseColorTexture":{
				"index":2
			},
			"baseColorFactor":[1.0,
			1.0,
			1.0,
			1.0],
			"metallicFactor":0.535,
			"roughnessFactor":0.5382843071521742
		},
		"emissiveFactor":[0.0,
		0.0,
		0.0],
		"alphaMode":"OPAQUE",
		"doubleSided":true,
		"name":"material_2"
	},
	{
		"pbrMetallicRoughness":{
			"baseColorTexture":{
				"index":3
			},
			"baseColorFactor":[1.0,
			1.0,
			1.0,
			1.0],
			"metallicFactor":0.0,
			"roughnessFactor":0.0
		},
		"emissiveFactor":[0.0,
		0.0,
		0.0],
		"alphaMode":"OPAQUE",
		"doubleSided":true,
		"name":"material_3"
	}]
}