{
  "accessors": [
    {
      "bufferView": 2,
      "componentType": 5126,
      "count": 7342,
      "max": [
        6.329686164855957,
        13.149797439575195,
        1.404600977897644
      ],
      "min": [
        3.87701416015625,
        7.896411895751953,
        0.06470996886491776
      ],
      "type": "VEC3"
    },
    {
      "bufferView": 2,
      "byteOffset": 88104,
      "componentType": 5126,
      "count": 7342,
      "max": [
        1.0,
        1.0,
        1.0
      ],
      "min": [
        -1.0,
        -1.0,
        -1.0
      ],
      "type": "VEC3"
    },
    {
      "bufferView": 1,
      "componentType": 5126,
      "count": 7342,
      "max": [
        0.9980469942092896,
        0.9980469942092896
      ],
      "min": [
        0.0012959999730810523,
        0.0009930133819580078
      ],
      "type": "VEC2"
    },
    {
      "bufferView": 0,
      "componentType": 5125,
      "count": 21300,
      "type": "SCALAR"
    },
    {
      "bufferView": 2,
      "byteOffset": 176208,
      "componentType": 5126,
      "count": 16,
      "max": [
        6.096859931945801,
        8.080056190490723,
        0.17542991042137146
      ],
      "min": [
        4.109840393066406,
        8.054633140563965,
        0.12476993352174759
      ],
      "type": "VEC3"
    },
    {
      "bufferView": 2,
      "byteOffset": 176400,
      "componentType": 5126,
      "count": 16,
      "max": [
        0.12430646270513535,
        -0.9922438859939575,
        0.00047449881094507873
      ],
      "min": [
        -0.12430647760629654,
        -0.9995400905609131,
        -2.716080234677065e-05
      ],
      "type": "VEC3"
    },
    {
      "bufferView": 1,
      "byteOffset": 58736,
      "componentType": 5126,
      "count": 16,
      "max": [
        0.9965819716453552,
        1.0
      ],
      "min": [
        0.0,
        0.0
      ],
      "type": "VEC2"
    },
    {
      "bufferView": 0,
      "byteOffset": 85200,
      "componentType": 5125,
      "count": 36,
      "type": "SCALAR"
    },
    {
      "bufferView": 2,
      "byteOffset": 176592,
      "componentType": 5126,
      "count": 2304,
      "max": [
        6.413506984710693,
        12.732087135314941,
        0.8711722493171692
      ],
      "min": [
        3.7931933403015137,
        8.624567031860352,
        -0.010413531213998795
      ],
      "type": "VEC3"
    },
    {
      "bufferView": 2,
      "byteOffset": 204240,
      "componentType": 5126,
      "count": 2304,
      "max": [
        1.0,
        0.9999997615814209,
        0.9999997615814209
      ],
      "min": [
        -1.0,
        -0.9999998211860657,
        -0.9999997615814209
      ],
      "type": "VEC3"
    },
    {
      "bufferView": 1,
      "byteOffset": 58864,
      "componentType": 5126,
      "count": 2304,
      "max": [
        2.0,
        0.9990230202674866
      ],
      "min": [
        -1.734375,
        0.027356982231140137
      ],
      "type": "VEC2"
    },
    {
      "bufferView": 0,
      "byteOffset": 85344,
      "componentType": 5125,
      "count": 7776,
      "type": "SCALAR"
    },
    {
      "bufferView": 2,
      "byteOffset": 231888,
      "componentType": 5126,
      "count": 27,
      "max": [
        5.500023365020752,
        10.508599281311035,
        1.0382601022720337
      ],
      "min": [
        4.706676959991455,
        10.158721923828125,
        0.8312209844589233
      ],
      "type": "VEC3"
    },
    {
      "bufferView": 2,
      "byteOffset": 232212,
      "componentType": 5126,
      "count": 27,
      "max": [
        0.8487688302993774,
        -0.3674049973487854,
        0.5756475329399109
      ],
      "min": [
        -0.848829984664917,
        -0.8240479230880737,
        0.37852486968040466
      ],
      "type": "VEC3"
    },
    {
      "bufferView": 1,
      "byteOffset": 77296,
      "componentType": 5126,
      "count": 27,
      "max": [
        0.9986540079116821,
        0.8648509979248047
      ],
      "min": [
        0.0009490000084042549,
        -0.08192706108093262
      ],
      "type": "VEC2"
    },
    {
      "bufferView": 0,
      "byteOffset": 116448,
      "componentType": 5125,
      "count": 96,
      "type": "SCALAR"
    }
  ],
  "asset": {
    "extras": {
      "author": "LukeMcQueen02 (https://sketchfab.com/lukemcqueen02)",
      "license": "CC-BY-4.0 (http://creativecommons.org/licenses/by/4.0/)",
      "source": "https://sketchfab.com/3d-models/francesco-bernoulli-46a9434db91444ff9d918c080a8a40c7",
      "title": "Francesco Bernoulli"
    },
    "generator": "Sketchfab-16.68.0",
    "version": "2.0"
  },
  "bufferViews": [
    {
      "buffer": 0,
      "byteLength": 116832,
      "name": "floatBufferViews",
      "target": 34963
    },
    {
      "buffer": 0,
      "byteLength": 77512,
      "byteOffset": 116832,
      "byteStride": 8,
      "name": "floatBufferViews",
      "target": 34962
    },
    {
      "buffer": 0,
      "byteLength": 232536,
      "byteOffset": 194344,
      "byteStride": 12,
      "name": "floatBufferViews",
      "target": 34962
    }
  ],
  "buffers": [
    {
      "byteLength": 426880,
      "uri": "scene.bin"
    }
  ],
  "images": [
    {
      "uri": "textures/material_0_baseColor.png"
    },
    {
      "uri": "textures/material_1_baseColor.png"
    },
    {
      "uri": "textures/material_2_baseColor.png"
    },
    {
      "uri": "textures/material_3_baseColor.jpeg"
    }
  ],
  "materials": [
    {
      "name": "material_0",
      "pbrMetallicRoughness": {
        "baseColorTexture": {
          "index": 0
        },
        "metallicFactor": 0.0,
        "roughnessFactor": 0.0
      }
    },
    {
      "name": "material_1",
      "pbrMetallicRoughness": {
        "baseColorTexture": {
          "index": 1
        },
        "metallicFactor": 0.0,
        "roughnessFactor": 0.801182
      }
    },
    {
      "name": "material_2",
      "pbrMetallicRoughness": {
        "baseColorFactor": [
          0.7725737830820055,
          0.7725737830820055,
          0.7725737830820055,
          1.0
        ],
        "baseColorTexture": {
          "index": 2
        },
        "metallicFactor": 0.535,
        "roughnessFactor": 0.5382843071521742
      }
    },
    {
      "name": "material_3",
      "pbrMetallicRoughness": {
        "baseColorTexture": {
          "index": 3
        },
        "metallicFactor": 0.0,
        "roughnessFactor": 0.0
      }
    }
  ],
  "meshes": [
    {
      "name": "Object_0",
      "primitives": [
        {
          "attributes": {
            "NORMAL": 1,
            "POSITION": 0,
            "TEXCOORD_0": 2
          },
          "indices": 3,
          "material": 0,
          "mode": 4
        }
      ]
    },
    {
      "name": "Object_1",
      "primitives": [
        {
          "attributes": {
            "NORMAL": 5,
            "POSITION": 4,
            "TEXCOORD_0": 6
          },
          "indices": 7,
          "material": 1,
          "mode": 4
        }
      ]
    },
    {
      "name": "Object_2",
      "primitives": [
        {
          "attributes": {
            "NORMAL": 9,
            "POSITION": 8,
            "TEXCOORD_0": 10
          },
          "indices": 11,
          "material": 2,
          "mode": 4
        }
      ]
    },
    {
      "name": "Object_3",
      "primitives": [
        {
          "attributes": {
            "NORMAL": 13,
            "POSITION": 12,
            "TEXCOORD_0": 14
          },
          "indices": 15,
          "material": 3,
          "mode": 4
        }
      ]
    }
  ],
  "nodes": [
    {
      "children": [
        1
      ],
      "matrix": [
        1.0,
        0.0,
        0.0,
        0.0,
        0.0,
        2.220446049250313e-16,
        -1.0,
        0.0,
        0.0,
        1.0,
        2.220446049250313e-16,
        0.0,
        0.0,
        0.0,
        0.0,
        1.0
      ],
      "name": "Sketchfab_model"
    },
    {
      "children": [
        2
      ],
      "name": "root"
    },
    {
      "children": [
        3
      ],
      "matrix": [
        1.0,
        0.0,
        0.0,
        0.0,
        0.0,
        2.220446049250313e-16,
        1.0,
        0.0,
        0.0,
        -1.0,
        2.220446049250313e-16,
        0.0,
        0.0,
        0.0,
        0.0,
        1.0
      ],
      "name": "GLTF_SceneRootNode"
    },
    {
      "children": [
        4
      ],
      "matrix": [
        1.0,
        0.0,
        0.0,
        0.0,
        0.0,
        2.220446049250313e-16,
        -1.0,
        0.0,
        0.0,
        1.0,
        2.220446049250313e-16,
        0.0,
        0.0,
        0.0,
        0.0,
        1.0
      ],
      "name": "Sketchfab_model_0"
    },
    {
      "children": [
        5
      ],
      "name": "root_1"
    },
    {
      "children": [
        6,
        9,
        12,
        15
      ],
      "matrix": [
        1.0,
        0.0,
        0.0,
        0.0,
        0.0,
        2.220446049250313e-16,
        1.0,
        0.0,
        0.0,
        -1.0,
        2.220446049250313e-16,
        0.0,
        0.0,
        0.0,
        0.0,
        1.0
      ],
      "name": "GLTF_SceneRootNode_2"
    },
    {
      "children": [
        7
      ],
      "matrix": [
        1.0,
        0.0,
        0.0,
        0.0,
        0.0,
        -1.1920928955078125e-07,
        -0.9999998807907104,
        0.0,
        0.0,
        0.9999998807907104,
        -1.1920928955078125e-07,
        0.0,
        -0.33944904804229736,
        0.011843129992485046,
        10.225177764892578,
        1.0
      ],
      "name": "_0_3"
    },
    {
      "children": [
        8
      ],
      "name": "Object_4_4"
    },
    {
      "mesh": 0,
      "name": "Object_8"
    },
    {
      "children": [
        10
      ],
      "matrix": [
        1.0,
        0.0,
        0.0,
        0.0,
        0.0,
        -1.1920928955078125e-07,
        -0.9999998807907104,
        0.0,
        0.0,
        0.9999998807907104,
        -1.1920928955078125e-07,
        0.0,
        -0.33944904804229736,
        0.011843129992485046,
        10.225177764892578,
        1.0
      ],
      "name": "_1_5"
    },
    {
      "children": [
        11
      ],
      "name": "Object_6_6"
    },
    {
      "mesh": 1,
      "name": "Object_11"
    },
    {
      "children": [
        13
      ],
      "matrix": [
        1.0,
        0.0,
        0.0,
        0.0,
        0.0,
        -1.1920928955078125e-07,
        -0.9999998807907104,
        0.0,
        0.0,
        0.9999998807907104,
        -1.1920928955078125e-07,
        0.0,
        -0.33944904804229736,
        0.011843129992485046,
        10.225177764892578,
        1.0
      ],
      "name": "_2_7"
    },
    {
      "children": [
        14
      ],
      "name": "Object_8_8"
    },
    {
      "mesh": 2,
      "name": "Object_14"
    },
    {
      "children": [
        16
      ],
      "matrix": [
        1.0,
        0.0,
        0.0,
        0.0,
        0.0,
        -1.1920928955078125e-07,
        -0.9999998807907104,
        0.0,
        0.0,
        0.9999998807907104,
        -1.1920928955078125e-07,
        0.0,
        -0.33944904804229736,
        0.011843129992485046,
        10.225177764892578,
        1.0
      ],
      "name": "_3_9"
    },
    {
      "children": [
        17
      ],
      "name": "Object_10_10"
    },
    {
      "mesh": 3,
      "name": "Object_17"
    }
  ],
  "samplers": [
    {
      "magFilter": 9729,
      "minFilter": 9729,
      "wrapS": 10497,
      "wrapT": 10497
    }
  ],
  "scene": 0,
  "scenes": [
    {
      "name": "Sketchfab_Scene",
      "nodes": [
        0
      ]
    }
  ],
  "textures": [
    {
      "sampler": 0,
      "source": 0
    },
    {
      "sampler": 0,
      "source": 1
    },
    {
      "sampler": 0,
      "source": 2
    },
    {
      "sampler": 0,
      "source": 3
    }
  ]
}
