{
  "accessors": [
    {
      "bufferView": 2,
      "componentType": 5126,
      "count": 2784,
      "max": [
        0.9945530295372009,
        1.610414981842041,
        0.7309650182723999
      ],
      "min": [
        -0.9945530295372009,
        -1.558264970779419,
        -0.0074350000359117985
      ],
      "type": "VEC3"
    },
    {
      "bufferView": 2,
      "byteOffset": 33408,
      "componentType": 5126,
      "count": 2784,
      "max": [
        1.0,
        0.9998606443405151,
        0.9998623132705688
      ],
      "min": [
        -1.0,
        -0.9998606443405151,
        -0.9998623132705688
      ],
      "type": "VEC3"
    },
    {
      "bufferView": 1,
      "componentType": 5126,
      "count": 2784,
      "max": [
        1.995116949081421,
        0.9809569716453552
      ],
      "min": [
        0.0016820000018924475,
        0.010803000070154667
      ],
      "type": "VEC2"
    },
    {
      "bufferView": 0,
      "componentType": 5125,
      "count": 6720,
      "type": "SCALAR"
    },
    {
      "bufferView": 2,
      "byteOffset": 66816,
      "componentType": 5126,
      "count": 120,
      "max": [
        0.931888997554779,
        1.9822100400924683,
        0.7213950157165527
      ],
      "min": [
        -0.931888997554779,
        1.8855500221252441,
        0.505823016166687
      ],
      "type": "VEC3"
    },
    {
      "bufferView": 2,
      "byteOffset": 68256,
      "componentType": 5126,
      "count": 120,
      "max": [
        0.7816237807273865,
        0.9963393211364746,
        0.4947970509529114
      ],
      "min": [
        -0.7816237807273865,
        0.6112185716629028,
        -0.46519234776496887
      ],
      "type": "VEC3"
    },
    {
      "bufferView": 1,
      "byteOffset": 22272,
      "componentType": 5126,
      "count": 120,
      "max": [
        0.9848629832267761,
        0.9233400225639343
      ],
      "min": [
        0.012404999695718288,
        0.032287999987602234
      ],
      "type": "VEC2"
    },
    {
      "bufferView": 0,
      "byteOffset": 26880,
      "componentType": 5125,
      "count": 354,
      "type": "SCALAR"
    },
    {
      "bufferView": 2,
      "byteOffset": 69696,
      "componentType": 5126,
      "count": 491,
      "max": [
        0.8762009739875793,
        -1.5366100072860718,
        0.6858500242233276
      ],
      "min": [
        -0.8762009739875793,
        -1.9105700254440308,
        0.44530799984931946
      ],
      "type": "VEC3"
    },
    {
      "bufferView": 2,
      "byteOffset": 75588,
      "componentType": 5126,
      "count": 491,
      "max": [
        0.9598171710968018,
        -0.10370022058486938,
        0.969040036201477
      ],
      "min": [
        -0.9534806609153748,
        -0.9999537467956543,
        -0.9427553415298462
      ],
      "type": "VEC3"
    },
    {
      "bufferView": 1,
      "byteOffset": 23232,
      "componentType": 5126,
      "count": 491,
      "max": [
        0.9868159890174866,
        0.9824219942092896
      ],
      "min": [
        0.02275099977850914,
        0.015564000234007835
      ],
      "type": "VEC2"
    },
    {
      "bufferView": 0,
      "byteOffset": 28296,
      "componentType": 5125,
      "count": 864,
      "type": "SCALAR"
    },
    {
      "bufferView": 2,
      "byteOffset": 81480,
      "componentType": 5126,
      "count": 6643,
      "max": [
        1.073699951171875,
        1.9822100400924683,
        1.2245800495147705
      ],
      "min": [
        -1.073699951171875,
        -2.0331199169158936,
        0.06463100016117096
      ],
      "type": "VEC3"
    },
    {
      "bufferView": 2,
      "byteOffset": 161196,
      "componentType": 5126,
      "count": 6643,
      "max": [
        1.0,
        1.0,
        1.0
      ],
      "min": [
        -1.0,
        -1.0,
        -1.0
      ],
      "type": "VEC3"
    },
    {
      "bufferView": 1,
      "byteOffset": 27160,
      "componentType": 5126,
      "count": 6643,
      "max": [
        0.9887700080871582,
        0.9946290254592896
      ],
      "min": [
        0.006523000076413155,
        0.006039000116288662
      ],
      "type": "VEC2"
    },
    {
      "bufferView": 0,
      "byteOffset": 31752,
      "componentType": 5125,
      "count": 15144,
      "type": "SCALAR"
    },
    {
      "bufferView": 2,
      "byteOffset": 240912,
      "componentType": 5126,
      "count": 28,
      "max": [
        0.5556179881095886,
        -0.23318299651145935,
        1.1319769620895386
      ],
      "min": [
        -0.5556179881095886,
        -0.7375079989433289,
        0.8297820091247559
      ],
      "type": "VEC3"
    },
    {
      "bufferView": 2,
      "byteOffset": 241248,
      "componentType": 5126,
      "count": 28,
      "max": [
        0.4209049940109253,
        -0.45199277997016907,
        0.810681939125061
      ],
      "min": [
        -0.31210482120513916,
        -0.5854869484901428,
        0.7864093780517578
      ],
      "type": "VEC3"
    },
    {
      "bufferView": 1,
      "byteOffset": 80304,
      "componentType": 5126,
      "count": 28,
      "max": [
        1.0,
        1.0
      ],
      "min": [
        -0.0,
        0.0
      ],
      "type": "VEC2"
    },
    {
      "bufferView": 0,
      "byteOffset": 92328,
      "componentType": 5125,
      "count": 48,
      "type": "SCALAR"
    }
  ],
  "asset": {
    "extras": {
      "author": "DinseyPixarCarsModels (https://sketchfab.com/DinseyPixarCarsModels)",
      "license": "CC-BY-4.0 (http://creativecommons.org/licenses/by/4.0/)",
      "source": "https://sketchfab.com/3d-models/holley-shiftwell-a4f746ac45bd433f93e70d4b59f08202",
      "title": "Holley Shiftwell"
    },
    "generator": "Sketchfab-16.74.0",
    "version": "2.0"
  },
  "bufferViews": [
    {
      "buffer": 0,
      "byteLength": 92520,
      "name": "floatBufferViews",
      "target": 34963
    },
    {
      "buffer": 0,
      "byteLength": 80528,
      "byteOffset": 92520,
      "byteStride": 8,
      "name": "floatBufferViews",
      "target": 34962
    },
    {
      "buffer": 0,
      "byteLength": 241584,
      "byteOffset": 173048,
      "byteStride": 12,
      "name": "floatBufferViews",
      "target": 34962
    }
  ],
  "buffers": [
    {
      "byteLength": 414632,
      "uri": "scene.bin"
    }
  ],
  "extensionsUsed": [
    "KHR_materials_specular"
  ],
  "images": [
    {
      "uri": "textures/Material.001_baseColor.png"
    },
    {
      "uri": "textures/Material.002_baseColor.png"
    },
    {
      "uri": "textures/Material.003_baseColor.png"
    },
    {
      "uri": "textures/Material.004_baseColor.png"
    },
    {
      "uri": "textures/Material.005_baseColor.jpeg"
    },
    {
      "uri": "textures/Material.005_metallicRoughness.png"
    }
  ],
  "materials": [
    {
      "doubleSided": true,
      "name": "Material.001",
      "pbrMetallicRoughness": {
        "baseColorTexture": {
          "index": 0
        },
        "metallicFactor": 0.41295363947775837,
        "roughnessFactor": 0.465
      }
    },
    {
      "doubleSided": true,
      "extensions": {
        "KHR_materials_specular": {
          "specularColorFactor": [
            1.0,
            1.0,
            1.0
          ],
          "specularFactor": 1.0
        }
      },
      "name": "Material.002",
      "pbrMetallicRoughness": {
        "baseColorTexture": {
          "index": 1
        },
        "metallicFactor": 0.0,
        "roughnessFactor": 0.0
      }
    },
    {
      "doubleSided": true,
      "name": "Material.003",
      "pbrMetallicRoughness": {
        "baseColorFactor": [
          0.5043824895466348,
          0.5043824895466348,
          0.5043824895466348,
          1.0
        ],
        "baseColorTexture": {
          "index": 2
        },
        "metallicFactor": 0.0,
        "roughnessFactor": 0.0
      }
    },
    {
      "doubleSided": true,
      "extensions": {
        "KHR_materials_specular": {
          "specularColorFactor": [
            1.0,
            1.0,
            1.0
          ],
          "specularFactor": 0.059428752544769654
        }
      },
      "name": "Material.004",
      "pbrMetallicRoughness": {
        "baseColorTexture": {
          "index": 3
        },
        "metallicFactor": 0.0,
        "roughnessFactor": 0.0
      }
    },
    {
      "doubleSided": true,
      "name": "Material.005",
      "pbrMetallicRoughness": {
        "baseColorTexture": {
          "index": 4
        },
        "metallicFactor": 0.33,
        "metallicRoughnessTexture": {
          "index": 5
        }
      }
    }
  ],
  "meshes": [
    {
      "name": "Object_0",
      "primitives": [
        {
          "attributes": {
            "NORMAL": 1,
            "POSITION": 0,
            "TEXCOORD_0": 2
          },
          "indices": 3,
          "material": 0,
          "mode": 4
        }
      ]
    },
    {
      "name": "Object_1",
      "primitives": [
        {
          "attributes": {
            "NORMAL": 5,
            "POSITION": 4,
            "TEXCOORD_0": 6
          },
          "indices": 7,
          "material": 1,
          "mode": 4
        }
      ]
    },
    {
      "name": "Object_2",
      "primitives": [
        {
          "attributes": {
            "NORMAL": 9,
            "POSITION": 8,
            "TEXCOORD_0": 10
          },
          "indices": 11,
          "material": 2,
          "mode": 4
        }
      ]
    },
    {
      "name": "Object_3",
      "primitives": [
        {
          "attributes": {
            "NORMAL": 13,
            "POSITION": 12,
            "TEXCOORD_0": 14
          },
          "indices": 15,
          "material": 3,
          "mode": 4
        }
      ]
    },
    {
      "name": "Object_4",
      "primitives": [
        {
          "attributes": {
            "NORMAL": 17,
            "POSITION": 16,
            "TEXCOORD_0": 18
          },
          "indices": 19,
          "material": 4,
          "mode": 4
        }
      ]
    }
  ],
  "nodes": [
    {
      "children": [
        1
      ],
      "matrix": [
        1.0,
        0.0,
        0.0,
        0.0,
        0.0,
        2.220446049250313e-16,
        -1.0,
        0.0,
        0.0,
        1.0,
        2.220446049250313e-16,
        0.0,
        0.0,
        0.0,
        0.0,
        1.0
      ],
      "name": "Sketchfab_model"
    },
    {
      "children": [
        2
      ],
      "name": "root"
    },
    {
      "children": [
        3
      ],
      "matrix": [
        1.0,
        0.0,
        0.0,
        0.0,
        0.0,
        2.220446049250313e-16,
        1.0,
        0.0,
        0.0,
        -1.0,
        2.220446049250313e-16,
        0.0,
        0.0,
        0.0,
        0.0,
        1.0
      ],
      "name": "GLTF_SceneRootNode"
    },
    {
      "children": [
        4
      ],
      "matrix": [
        1.0,
        0.0,
        0.0,
        0.0,
        0.0,
        2.220446049250313e-16,
        -1.0,
        0.0,
        0.0,
        1.0,
        2.220446049250313e-16,
        0.0,
        0.0,
        0.0,
        0.0,
        1.0
      ],
      "name": "Sketchfab_model_0"
    },
    {
      "children": [
        5
      ],
      "name": "root_1"
    },
    {
      "children": [
        6
      ],
      "matrix": [
        1.0,
        0.0,
        0.0,
        0.0,
        0.0,
        2.220446049250313e-16,
        1.0,
        0.0,
        0.0,
        -1.0,
        2.220446049250313e-16,
        0.0,
        0.0,
        0.0,
        0.0,
        1.0
      ],
      "name": "GLTF_SceneRootNode_2"
    },
    {
      "children": [
        7
      ],
      "matrix": [
        1.0,
        0.0,
        0.0,
        0.0,
        0.0,
        2.220446049250313e-16,
        -1.0,
        0.0,
        0.0,
        1.0,
        2.220446049250313e-16,
        0.0,
        0.0,
        0.0,
        0.0,
        1.0
      ],
      "name": "Sketchfab_model_0_3"
    },
    {
      "children": [
        8,
        11,
        14,
        17,
        20
      ],
      "name": "holly.obj.cleaner.materialmerger.gles_1_4"
    },
    {
      "children": [
        9
      ],
      "name": "Object_2_2_5"
    },
    {
      "children": [
        10
      ],
      "name": "Object_6_6"
    },
    {
      "mesh": 0,
      "name": "Object_10"
    },
    {
      "children": [
        12
      ],
      "name": "Object_3_3_7"
    },
    {
      "children": [
        13
      ],
      "name": "Object_8_8"
    },
    {
      "mesh": 1,
      "name": "Object_13"
    },
    {
      "children": [
        15
      ],
      "name": "Object_4_4_9"
    },
    {
      "children": [
        16
      ],
      "name": "Object_10_10"
    },
    {
      "mesh": 2,
      "name": "Object_16"
    },
    {
      "children": [
        18
      ],
      "name": "Object_5_5_11"
    },
    {
      "children": [
        19
      ],
      "name": "Object_12_12"
    },
    {
      "mesh": 3,
      "name": "Object_19"
    },
    {
      "children": [
        21
      ],
      "name": "Object_6_6_13"
    },
    {
      "children": [
        22
      ],
      "name": "Object_14_14"
    },
    {
      "mesh": 4,
      "name": "Object_22"
    }
  ],
  "samplers": [
    {
      "magFilter": 9729,
      "minFilter": 9987,
      "wrapS": 10497,
      "wrapT": 10497
    }
  ],
  "scene": 0,
  "scenes": [
    {
      "name": "Sketchfab_Scene",
      "nodes": [
        0
      ]
    }
  ],
  "textures": [
    {
      "sampler": 0,
      "source": 0
    },
    {
      "sampler": 0,
      "source": 1
    },
    {
      "sampler": 0,
      "source": 2
    },
    {
      "sampler": 0,
      "source": 3
    },
    {
      "sampler": 0,
      "source": 4
    },
    {
      "sampler": 0,
      "source": 5
    }
  ]
}
