{
	"asset":{
		"version":"2.0",
		"generator":"Sketchfab-16.17.0",
		"copyright":""
	},
	"scenes":[{
		"nodes":[0]
	}],
	"nodes":[{
		"name":"Sketchfab_Scene",
		"children":[1]
	},
	{
		"name":"Sketchfab_model",
		"translation":[0.0,
		0.0,
		0.0],
		"rotation":[0.7071067690849304,
		0.0,
		0.0,
		-0.7071067690849304],
		"scale":[1.0,
		1.0,
		1.0],
		"children":[2]
	},
	{
		"name":"3783a55a3f2b4a6eadf0c8094dd905d7.obj.cleaner.materialmerger.gles",
		"children":[3]
	},
	{
		"name":"Object_2",
		"mesh":0,
		"translation":[0.0,
		0.0,
		0.0],
		"rotation":[-0.7068644762039185,
		-0.018509898334741594,
		0.018509898334741594,
		-0.7068644762039185],
		"scale":[1.0,
		1.0,
		1.0]
	}],
	"meshes":[{
		"name":"Object_2",
		"primitives":[{
			"attributes":{
				"POSITION":1,
				"NORMAL":2,
				"TEXCOORD_0":3
			},
			"indices":0,
			"material":0
		}]
	}],
	"accessors":[{
		"max":[35],
		"bufferView":0,
		"min":[0],
		"componentType":5123,
		"type":"SCALAR",
		"count":36,
		"byteOffset":0
	},
	{
		"max":[0.4475499987602234,
		0.6670849919319153,
		0.006955000106245279],
		"bufferView":1,
		"min":[-0.4475499987602234,
		-0.6670849919319153,
		-0.006955000106245279],
		"componentType":5126,
		"type":"VEC3",
		"count":36,
		"byteOffset":0
	},
	{
		"max":[0.9982057213783264,
		0.9982057213783264,
		1.0],
		"bufferView":1,
		"min":[-0.9982057213783264,
		-0.9982057213783264,
		-1.0],
		"componentType":5126,
		"type":"VEC3",
		"count":36,
		"byteOffset":12
	},
	{
		"max":[1.005767822265625,
		1.00030517578125],
		"bufferView":1,
		"min":[-0.005795955657958984,
		-0.00556492805480957],
		"componentType":5126,
		"type":"VEC2",
		"count":36,
		"byteOffset":24
	}],
	"bufferViews":[{
		"buffer":0,
		"byteOffset":0,
		"byteLength":72,
		"target":34963
	},
	{
		"buffer":0,
		"byteOffset":72,
		"byteLength":1152,
		"target":34962,
		"byteStride":32
	}],
	"buffers":[{
		"uri":"data:application/octet-stream;base64,",
		"byteLength":1224
	}],
	"images":[{
		"uri":"data:image/png;base64,"
	}],
	"samplers":[{
		"magFilter":9729,
		"minFilter":9729,
		"wrapS":10497,
		"wrapT":10497
	}],
	"textures":[{
		"sampler":0,
		"source":0
	}],
	"materials":[{
		"pbrMetallicRoughness":{
			"baseColorTexture":{
				"index":0
			},
			"baseColorFactor":[1.0,
			1.0,
			1.0,
			1.0],
			"metallicFactor":0.0,
			"roughnessFactor":0.17523862929867976
		},
		"emissiveFactor":[0.0,
		0.0,
		0.0],
		"alphaMode":"OPAQUE",
		"doubleSided":true,
		"name":"Material"
	}]
}