{
  "accessors": [
    {
      "bufferView": 2,
      "componentType": 5126,
      "count": 8715,
      "max": [
        1.1500002145767212,
        2.4141268730163574,
        1.4657020568847656
      ],
      "min": [
        -1.1500002145767212,
        -2.2395944595336914,
        0.06400439143180847
      ],
      "type": "VEC3"
    },
    {
      "bufferView": 2,
      "byteOffset": 104580,
      "componentType": 5126,
      "count": 8715,
      "max": [
        1.0,
        1.0,
        1.0
      ],
      "min": [
        -1.0,
        -1.0,
        -1.0
      ],
      "type": "VEC3"
    },
    {
      "bufferView": 1,
      "componentType": 5126,
      "count": 8715,
      "max": [
        0.99755859375,
        0.9985494613647461
      ],
      "min": [
        0.0009403228759765625,
        0.001953125
      ],
      "type": "VEC2"
    },
    {
      "bufferView": 0,
      "componentType": 5125,
      "count": 43491,
      "type": "SCALAR"
    },
    {
      "bufferView": 2,
      "byteOffset": 209160,
      "componentType": 5126,
      "count": 83,
      "max": [
        0.7680115699768066,
        0.9385422468185425,
        0.6407556533813477
      ],
      "min": [
        -0.7680115699768066,
        0.5168257355690002,
        0.15283195674419403
      ],
      "type": "VEC3"
    },
    {
      "bufferView": 2,
      "byteOffset": 210156,
      "componentType": 5126,
      "count": 83,
      "max": [
        0.4823271334171295,
        0.7096278667449951,
        0.7054760456085205
      ],
      "min": [
        -0.48232850432395935,
        0.6473947763442993,
        0.5694983601570129
      ],
      "type": "VEC3"
    },
    {
      "bufferView": 1,
      "byteOffset": 69720,
      "componentType": 5126,
      "count": 83,
      "max": [
        0.99853515625,
        0.9972381591796875
      ],
      "min": [
        0.0010042190551757813,
        0.0029296875
      ],
      "type": "VEC2"
    },
    {
      "bufferView": 0,
      "byteOffset": 173964,
      "componentType": 5125,
      "count": 318,
      "type": "SCALAR"
    },
    {
      "bufferView": 2,
      "byteOffset": 211152,
      "componentType": 5126,
      "count": 127,
      "max": [
        0.8434151411056519,
        0.9418832063674927,
        0.27927452325820923
      ],
      "min": [
        -0.8434151411056519,
        0.5430490970611572,
        -1.8415387868881226
      ],
      "type": "VEC3"
    },
    {
      "bufferView": 2,
      "byteOffset": 212676,
      "componentType": 5126,
      "count": 127,
      "max": [
        0.9146088361740112,
        0.9608267545700073,
        0.11772583425045013
      ],
      "min": [
        -0.9146086573600769,
        0.4043387770652771,
        -0.2778052091598511
      ],
      "type": "VEC3"
    },
    {
      "bufferView": 1,
      "byteOffset": 70384,
      "componentType": 5126,
      "count": 127,
      "max": [
        -0.239013671875,
        -0.037109375
      ],
      "min": [
        -0.9658203125,
        -0.9013671875
      ],
      "type": "VEC2"
    },
    {
      "bufferView": 0,
      "byteOffset": 175236,
      "componentType": 5125,
      "count": 432,
      "type": "SCALAR"
    },
    {
      "bufferView": 2,
      "byteOffset": 214200,
      "componentType": 5126,
      "count": 230,
      "max": [
        0.9526408910751343,
        0.6345405578613281,
        2.137669324874878
      ],
      "min": [
        -0.9526408910751343,
        0.21832667291164398,
        -2.289896249771118
      ],
      "type": "VEC3"
    },
    {
      "bufferView": 2,
      "byteOffset": 216960,
      "componentType": 5126,
      "count": 230,
      "max": [
        0.7181462645530701,
        0.8881903886795044,
        0.9990891218185425
      ],
      "min": [
        -0.12166609615087509,
        -0.888187825679779,
        -0.9990891218185425
      ],
      "type": "VEC3"
    },
    {
      "bufferView": 1,
      "byteOffset": 71400,
      "componentType": 5126,
      "count": 230,
      "max": [
        0.9994605779647827,
        0.9974536895751953
      ],
      "min": [
        0.00022232532501220703,
        0.0
      ],
      "type": "VEC2"
    },
    {
      "bufferView": 0,
      "byteOffset": 176964,
      "componentType": 5125,
      "count": 996,
      "type": "SCALAR"
    },
    {
      "bufferView": 2,
      "byteOffset": 219720,
      "componentType": 5126,
      "count": 2612,
      "max": [
        1.057847499847412,
        0.45934706926345825,
        1.7589678764343262
      ],
      "min": [
        -1.057776927947998,
        -0.44489601254463196,
        -1.757667064666748
      ],
      "type": "VEC3"
    },
    {
      "bufferView": 2,
      "byteOffset": 251064,
      "componentType": 5126,
      "count": 2612,
      "max": [
        1.0,
        1.0,
        1.0
      ],
      "min": [
        -1.0,
        -1.0,
        -1.0
      ],
      "type": "VEC3"
    },
    {
      "bufferView": 1,
      "byteOffset": 73240,
      "componentType": 5126,
      "count": 2612,
      "max": [
        0.99951171875,
        0.9982938766479492
      ],
      "min": [
        0.0004544258117675781,
        0.001953125
      ],
      "type": "VEC2"
    },
    {
      "bufferView": 0,
      "byteOffset": 180948,
      "componentType": 5125,
      "count": 13920,
      "type": "SCALAR"
    }
  ],
  "asset": {
    "extras": {
      "author": "DinseyPixarCarsModels (https://sketchfab.com/DinseyPixarCarsModels)",
      "license": "CC-BY-4.0 (http://creativecommons.org/licenses/by/4.0/)",
      "source": "https://sketchfab.com/3d-models/rookie-lightning-mcqueen-91f7594ccbb44da6ac596abe2af1fc6d",
      "title": "Rookie Lightning McQueen"
    },
    "generator": "Sketchfab-16.85.0",
    "version": "2.0"
  },
  "bufferViews": [
    {
      "buffer": 0,
      "byteLength": 236628,
      "name": "floatBufferViews",
      "target": 34963
    },
    {
      "buffer": 0,
      "byteLength": 94136,
      "byteOffset": 236628,
      "byteStride": 8,
      "name": "floatBufferViews",
      "target": 34962
    },
    {
      "buffer": 0,
      "byteLength": 282408,
      "byteOffset": 330764,
      "byteStride": 12,
      "name": "floatBufferViews",
      "target": 34962
    }
  ],
  "buffers": [
    {
      "byteLength": 613172,
      "uri": "scene.bin"
    }
  ],
  "images": [
    {
      "uri": "textures/Material.002_baseColor.jpeg"
    },
    {
      "uri": "textures/Material.002_metallicRoughness.png"
    },
    {
      "uri": "textures/Material.020_baseColor.jpeg"
    },
    {
      "uri": "textures/Material.020_metallicRoughness.png"
    },
    {
      "uri": "textures/Material.023_baseColor.jpeg"
    },
    {
      "uri": "textures/Material.025_baseColor.png"
    }
  ],
  "materials": [
    {
      "doubleSided": true,
      "name": "Material.002",
      "pbrMetallicRoughness": {
        "baseColorTexture": {
          "index": 0
        },
        "metallicFactor": 0.0,
        "metallicRoughnessTexture": {
          "index": 1
        }
      }
    },
    {
      "doubleSided": true,
      "name": "Material.020",
      "pbrMetallicRoughness": {
        "baseColorTexture": {
          "index": 2
        },
        "metallicFactor": 0.0,
        "metallicRoughnessTexture": {
          "index": 3
        }
      }
    },
    {
      "alphaMode": "BLEND",
      "doubleSided": true,
      "name": "Material.022",
      "pbrMetallicRoughness": {
        "baseColorFactor": [
          0.1138788422272192,
          0.1138788422272192,
          0.1138788422272192,
          0.778669039753264
        ],
        "metallicFactor": 0.0,
        "roughnessFactor": 0.0
      }
    },
    {
      "doubleSided": true,
      "name": "Material.023",
      "pbrMetallicRoughness": {
        "baseColorTexture": {
          "index": 4
        },
        "metallicFactor": 0.0,
        "roughnessFactor": 0.8211145618000169
      }
    },
    {
      "doubleSided": true,
      "name": "Material.025",
      "pbrMetallicRoughness": {
        "baseColorTexture": {
          "index": 5
        },
        "metallicFactor": 0.0,
        "roughnessFactor": 0.8211145618000169
      }
    }
  ],
  "meshes": [
    {
      "name": "Body_Material.002_0",
      "primitives": [
        {
          "attributes": {
            "NORMAL": 1,
            "POSITION": 0,
            "TEXCOORD_0": 2
          },
          "indices": 3,
          "material": 0,
          "mode": 4
        }
      ]
    },
    {
      "name": "Eyes_Material.020_0",
      "primitives": [
        {
          "attributes": {
            "NORMAL": 5,
            "POSITION": 4,
            "TEXCOORD_0": 6
          },
          "indices": 7,
          "material": 1,
          "mode": 4
        }
      ]
    },
    {
      "name": "Glass_Material.022_0",
      "primitives": [
        {
          "attributes": {
            "NORMAL": 9,
            "POSITION": 8,
            "TEXCOORD_0": 10
          },
          "indices": 11,
          "material": 2,
          "mode": 4
        }
      ]
    },
    {
      "name": "Stickers_Material.023_0",
      "primitives": [
        {
          "attributes": {
            "NORMAL": 13,
            "POSITION": 12,
            "TEXCOORD_0": 14
          },
          "indices": 15,
          "material": 3,
          "mode": 4
        }
      ]
    },
    {
      "name": "Wheels_Material.025_0",
      "primitives": [
        {
          "attributes": {
            "NORMAL": 17,
            "POSITION": 16,
            "TEXCOORD_0": 18
          },
          "indices": 19,
          "material": 4,
          "mode": 4
        }
      ]
    }
  ],
  "nodes": [
    {
      "children": [
        1
      ],
      "matrix": [
        1.0,
        0.0,
        0.0,
        0.0,
        0.0,
        2.220446049250313e-16,
        -1.0,
        0.0,
        0.0,
        1.0,
        2.220446049250313e-16,
        0.0,
        0.0,
        0.0,
        0.0,
        1.0
      ],
      "name": "Sketchfab_model"
    },
    {
      "children": [
        2
      ],
      "matrix": [
        0.009999999776482582,
        0.0,
        0.0,
        0.0,
        0.0,
        0.0,
        0.009999999776482582,
        0.0,
        0.0,
        -0.009999999776482582,
        0.0,
        0.0,
        0.0,
        0.0,
        0.0,
        1.0
      ],
      "name": "1e7ba12e02ba466584c8dac3411cef2a.fbx"
    },
    {
      "children": [
        3,
        5,
        7,
        9,
        11
      ],
      "name": "RootNode"
    },
    {
      "children": [
        4
      ],
      "matrix": [
        100.0,
        0.0,
        0.0,
        0.0,
        0.0,
        -2.8212996916465727e-05,
        -99.99999999999602,
        0.0,
        0.0,
        99.99999999999602,
        -2.8212996916465727e-05,
        0.0,
        0.0,
        0.0,
        0.0,
        1.0
      ],
      "name": "Body"
    },
    {
      "mesh": 0,
      "name": "Body_Material.002_0"
    },
    {
      "children": [
        6
      ],
      "matrix": [
        99.54756164550781,
        0.0,
        0.0,
        0.0,
        0.0,
        99.91122436523041,
        2.818795402144811e-05,
        0.0,
        0.0,
        -2.818795402144811e-05,
        99.91122436523041,
        0.0,
        0.0,
        43.62139892578125,
        0.0,
        1.0
      ],
      "name": "Eyes"
    },
    {
      "mesh": 1,
      "name": "Eyes_Material.020_0"
    },
    {
      "children": [
        8
      ],
      "matrix": [
        99.54756164550781,
        0.0,
        0.0,
        0.0,
        0.0,
        99.91122436523041,
        2.818795402144811e-05,
        0.0,
        0.0,
        -2.818795402144811e-05,
        99.91122436523041,
        0.0,
        0.0,
        43.62139892578125,
        0.0,
        1.0
      ],
      "name": "Glass"
    },
    {
      "mesh": 2,
      "name": "Glass_Material.022_0"
    },
    {
      "children": [
        10
      ],
      "matrix": [
        99.54756164550781,
        0.0,
        0.0,
        0.0,
        0.0,
        99.91122436523041,
        2.818795402144811e-05,
        0.0,
        0.0,
        -2.818795402144811e-05,
        99.91122436523041,
        0.0,
        0.0,
        43.62139892578125,
        0.0,
        1.0
      ],
      "name": "Stickers"
    },
    {
      "mesh": 3,
      "name": "Stickers_Material.023_0"
    },
    {
      "children": [
        12
      ],
      "matrix": [
        99.54756164550781,
        0.0,
        0.0,
        0.0,
        0.0,
        99.91122436523041,
        2.818795402144811e-05,
        0.0,
        0.0,
        -2.818795402144811e-05,
        99.91122436523041,
        0.0,
        0.0,
        43.62139892578125,
        0.0,
        1.0
      ],
      "name": "Wheels"
    },
    {
      "mesh": 4,
      "name": "Wheels_Material.025_0"
    }
  ],
  "samplers": [
    {
      "magFilter": 9729,
      "minFilter": 9987,
      "wrapS": 10497,
      "wrapT": 10497
    }
  ],
  "scene": 0,
  "scenes": [
    {
      "name": "Sketchfab_Scene",
      "nodes": [
        0
      ]
    }
  ],
  "textures": [
    {
      "sampler": 0,
      "source": 0
    },
    {
      "sampler": 0,
      "source": 1
    },
    {
      "sampler": 0,
      "source": 2
    },
    {
      "sampler": 0,
      "source": 3
    },
    {
      "sampler": 0,
      "source": 4
    },
    {
      "sampler": 0,
      "source": 5
    }
  ]
}
