{
  "accessors": [
    {
      "bufferView": 2,
      "componentType": 5126,
      "count": 80,
      "max": [
        0.7279390096664429,
        2.197772979736328,
        0.7798600196838379
      ],
      "min": [
        -0.7279390096664429,
        2.153939962387085,
        0.7060700058937073
      ],
      "type": "VEC3"
    },
    {
      "bufferView": 2,
      "byteOffset": 960,
      "componentType": 5126,
      "count": 80,
      "max": [
        0.8476892113685608,
        1.0,
        0.8476892113685608
      ],
      "min": [
        -0.8476892113685608,
        0.5304931998252869,
        -0.8476892113685608
      ],
      "type": "VEC3"
    },
    {
      "bufferView": 1,
      "componentType": 5126,
      "count": 80,
      "max": [
        0.9815260171890259,
        0.9778950214385986
      ],
      "min": [
        0.018834000453352928,
        0.015003979206085205
      ],
      "type": "VEC2"
    },
    {
      "bufferView": 0,
      "componentType": 5125,
      "count": 240,
      "type": "SCALAR"
    },
    {
      "bufferView": 2,
      "byteOffset": 1920,
      "componentType": 5126,
      "count": 59,
      "max": [
        0.7175930142402649,
        0.04647500067949295,
        1.371461033821106
      ],
      "min": [
        -0.7175930142402649,
        -0.35767900943756104,
        0.9383860230445862
      ],
      "type": "VEC3"
    },
    {
      "bufferView": 2,
      "byteOffset": 2628,
      "componentType": 5126,
      "count": 59,
      "max": [
        0.5147773027420044,
        -0.6576709747314453,
        0.6609930396080017
      ],
      "min": [
        -0.5146982073783875,
        -0.7580695152282715,
        0.549898087978363
      ],
      "type": "VEC3"
    },
    {
      "bufferView": 1,
      "byteOffset": 640,
      "componentType": 5126,
      "count": 59,
      "max": [
        1.0,
        0.9702150225639343
      ],
      "min": [
        0.0,
        0.0008350014686584473
      ],
      "type": "VEC2"
    },
    {
      "bufferView": 0,
      "byteOffset": 960,
      "componentType": 5125,
      "count": 144,
      "type": "SCALAR"
    },
    {
      "bufferView": 2,
      "byteOffset": 3336,
      "componentType": 5126,
      "count": 5959,
      "max": [
        0.9696289896965027,
        2.258465051651001,
        1.3866050243377686
      ],
      "min": [
        -0.9696289896965027,
        -2.044053077697754,
        0.34123098850250244
      ],
      "type": "VEC3"
    },
    {
      "bufferView": 2,
      "byteOffset": 74844,
      "componentType": 5126,
      "count": 5959,
      "max": [
        1.0,
        1.0,
        1.0
      ],
      "min": [
        -1.0,
        -0.9989820122718811,
        -1.0
      ],
      "type": "VEC3"
    },
    {
      "bufferView": 1,
      "byteOffset": 1112,
      "componentType": 5126,
      "count": 5959,
      "max": [
        0.9892579913139343,
        0.24943196773529053
      ],
      "min": [
        0.29541000723838806,
        0.0028499960899353027
      ],
      "type": "VEC2"
    },
    {
      "bufferView": 0,
      "byteOffset": 1536,
      "componentType": 5125,
      "count": 8961,
      "type": "SCALAR"
    },
    {
      "bufferView": 2,
      "byteOffset": 146352,
      "componentType": 5126,
      "count": 96,
      "max": [
        0.7323049902915955,
        1.4431270360946655,
        1.2808409929275513
      ],
      "min": [
        -0.7323049902915955,
        -0.0699400007724762,
        0.9437479972839355
      ],
      "type": "VEC3"
    },
    {
      "bufferView": 2,
      "byteOffset": 147504,
      "componentType": 5126,
      "count": 96,
      "max": [
        0.9715577363967896,
        0.4560166001319885,
        0.9177793264389038
      ],
      "min": [
        -0.9715577363967896,
        0.06660228222608566,
        0.19179165363311768
      ],
      "type": "VEC3"
    },
    {
      "bufferView": 1,
      "byteOffset": 48784,
      "componentType": 5126,
      "count": 96,
      "max": [
        0.8007810115814209,
        1.0
      ],
      "min": [
        0.0,
        0.05697602033615112
      ],
      "type": "VEC2"
    },
    {
      "bufferView": 0,
      "byteOffset": 37380,
      "componentType": 5125,
      "count": 234,
      "type": "SCALAR"
    },
    {
      "bufferView": 2,
      "byteOffset": 148656,
      "componentType": 5126,
      "count": 66,
      "max": [
        0.8299319744110107,
        -2.036375045776367,
        0.8344699740409851
      ],
      "min": [
        -0.8299319744110107,
        -2.0644099712371826,
        0.6280840039253235
      ],
      "type": "VEC3"
    },
    {
      "bufferView": 2,
      "byteOffset": 149448,
      "componentType": 5126,
      "count": 66,
      "max": [
        0.40838903188705444,
        -0.9125189185142517,
        0.40838876366615295
      ],
      "min": [
        -0.40838876366615295,
        -1.0,
        -0.40838876366615295
      ],
      "type": "VEC3"
    },
    {
      "bufferView": 1,
      "byteOffset": 49552,
      "componentType": 5126,
      "count": 66,
      "max": [
        0.9885209798812866,
        0.9848629832267761
      ],
      "min": [
        0.014293000102043152,
        0.011062979698181152
      ],
      "type": "VEC2"
    },
    {
      "bufferView": 0,
      "byteOffset": 38316,
      "componentType": 5125,
      "count": 192,
      "type": "SCALAR"
    },
    {
      "bufferView": 2,
      "byteOffset": 150240,
      "componentType": 5126,
      "count": 3576,
      "max": [
        0.9749460220336914,
        2.197772979736328,
        1.4109920263290405
      ],
      "min": [
        -0.9749460220336914,
        -2.038973093032837,
        0.15387099981307983
      ],
      "type": "VEC3"
    },
    {
      "bufferView": 2,
      "byteOffset": 193152,
      "componentType": 5126,
      "count": 3576,
      "max": [
        0.9998432993888855,
        1.0,
        1.0
      ],
      "min": [
        -0.9998432993888855,
        -1.0,
        -1.0
      ],
      "type": "VEC3"
    },
    {
      "bufferView": 1,
      "byteOffset": 50080,
      "componentType": 5126,
      "count": 3576,
      "max": [
        0.9926760196685791,
        0.999396026134491
      ],
      "min": [
        0.016434000805020332,
        0.0037189722061157227
      ],
      "type": "VEC2"
    },
    {
      "bufferView": 0,
      "byteOffset": 39084,
      "componentType": 5125,
      "count": 7896,
      "type": "SCALAR"
    },
    {
      "bufferView": 2,
      "byteOffset": 236064,
      "componentType": 5126,
      "count": 911,
      "max": [
        73.55789947509766,
        107.93470001220703,
        63.58100128173828
      ],
      "min": [
        -73.55789947509766,
        44.499698638916016,
        0.13840000331401825
      ],
      "type": "VEC3"
    },
    {
      "bufferView": 2,
      "byteOffset": 246996,
      "componentType": 5126,
      "count": 911,
      "max": [
        1.0,
        1.0,
        1.0
      ],
      "min": [
        -1.0,
        -1.0,
        -1.0
      ],
      "type": "VEC3"
    },
    {
      "bufferView": 1,
      "byteOffset": 78688,
      "componentType": 5126,
      "count": 911,
      "max": [
        0.9994999766349792,
        -0.011700034141540527
      ],
      "min": [
        0.0066999997943639755,
        -0.9922000169754028
      ],
      "type": "VEC2"
    },
    {
      "bufferView": 1,
      "byteOffset": 85976,
      "componentType": 5126,
      "count": 911,
      "max": [
        0.9994999766349792,
        -0.011700034141540527
      ],
      "min": [
        0.0066999997943639755,
        -0.9922000169754028
      ],
      "type": "VEC2"
    },
    {
      "bufferView": 0,
      "byteOffset": 70668,
      "componentType": 5125,
      "count": 3792,
      "type": "SCALAR"
    },
    {
      "bufferView": 2,
      "byteOffset": 257928,
      "componentType": 5126,
      "count": 913,
      "max": [
        76.16035461425781,
        337.6585388183594,
        63.58097457885742
      ],
      "min": [
        -75.8018798828125,
        274.2235412597656,
        0.13837206363677979
      ],
      "type": "VEC3"
    },
    {
      "bufferView": 2,
      "byteOffset": 268884,
      "componentType": 5126,
      "count": 913,
      "max": [
        1.0,
        1.0,
        1.0
      ],
      "min": [
        -1.0,
        -1.0,
        -1.0
      ],
      "type": "VEC3"
    },
    {
      "bufferView": 1,
      "byteOffset": 93264,
      "componentType": 5126,
      "count": 913,
      "max": [
        0.9994999766349792,
        -0.011700034141540527
      ],
      "min": [
        0.0066999997943639755,
        -0.9922000169754028
      ],
      "type": "VEC2"
    },
    {
      "bufferView": 1,
      "byteOffset": 100568,
      "componentType": 5126,
      "count": 913,
      "max": [
        0.9994999766349792,
        -0.011700034141540527
      ],
      "min": [
        0.0066999997943639755,
        -0.9922000169754028
      ],
      "type": "VEC2"
    },
    {
      "bufferView": 0,
      "byteOffset": 85836,
      "componentType": 5125,
      "count": 3792,
      "type": "SCALAR"
    }
  ],
  "asset": {
    "extras": {
      "author": "LukeMcQueen02 (https://sketchfab.com/lukemcqueen02)",
      "license": "CC-BY-4.0 (http://creativecommons.org/licenses/by/4.0/)",
      "source": "https://sketchfab.com/3d-models/finn-mcmissle-03fc7a3e760646178c580b8ed75d57a1",
      "title": "Finn McMissle"
    },
    "generator": "Sketchfab-16.68.0",
    "version": "2.0"
  },
  "bufferViews": [
    {
      "buffer": 0,
      "byteLength": 101004,
      "name": "floatBufferViews",
      "target": 34963
    },
    {
      "buffer": 0,
      "byteLength": 107872,
      "byteOffset": 101004,
      "byteStride": 8,
      "name": "floatBufferViews",
      "target": 34962
    },
    {
      "buffer": 0,
      "byteLength": 279840,
      "byteOffset": 208876,
      "byteStride": 12,
      "name": "floatBufferViews",
      "target": 34962
    }
  ],
  "buffers": [
    {
      "byteLength": 488716,
      "uri": "scene.bin"
    }
  ],
  "extensionsUsed": [
    "KHR_materials_specular"
  ],
  "images": [
    {
      "uri": "textures/Material.016_baseColor.png"
    },
    {
      "uri": "textures/Material.017_baseColor.jpeg"
    },
    {
      "uri": "textures/Material.017_metallicRoughness.png"
    },
    {
      "uri": "textures/Material.019_baseColor.png"
    },
    {
      "uri": "textures/Material.021_baseColor.png"
    },
    {
      "uri": "textures/Material.001_baseColor.png"
    },
    {
      "uri": "textures/Material__77.002_baseColor.png"
    }
  ],
  "materials": [
    {
      "doubleSided": true,
      "name": "Material.016",
      "pbrMetallicRoughness": {
        "baseColorTexture": {
          "index": 0
        },
        "metallicFactor": 0.0,
        "roughnessFactor": 0.801182
      }
    },
    {
      "doubleSided": true,
      "name": "Material.017",
      "pbrMetallicRoughness": {
        "baseColorTexture": {
          "index": 1
        },
        "metallicFactor": 0.0,
        "metallicRoughnessTexture": {
          "index": 2
        }
      }
    },
    {
      "doubleSided": true,
      "name": "Material.019",
      "pbrMetallicRoughness": {
        "baseColorTexture": {
          "index": 3
        },
        "metallicFactor": 0.0,
        "roughnessFactor": 0.0
      }
    },
    {
      "doubleSided": true,
      "extensions": {
        "KHR_materials_specular": {
          "specularColorFactor": [
            1.0,
            1.0,
            1.0
          ],
          "specularFactor": 0.91886
        }
      },
      "name": "Material.020",
      "pbrMetallicRoughness": {
        "baseColorFactor": [
          0.04999488099145083,
          0.04956150170875544,
          0.04956150170875544,
          1.0
        ],
        "metallicFactor": 0.0,
        "roughnessFactor": 0.0
      }
    },
    {
      "doubleSided": true,
      "name": "Material.021",
      "pbrMetallicRoughness": {
        "baseColorTexture": {
          "index": 4
        },
        "metallicFactor": 0.0,
        "roughnessFactor": 0.801182
      }
    },
    {
      "doubleSided": true,
      "name": "Material.001",
      "pbrMetallicRoughness": {
        "baseColorTexture": {
          "index": 5
        },
        "metallicFactor": 0.0,
        "roughnessFactor": 0.0
      }
    },
    {
      "doubleSided": true,
      "emissiveTexture": {
        "index": 6
      },
      "extensions": {
        "KHR_materials_specular": {
          "specularColorFactor": [
            1.0,
            1.0,
            1.0
          ],
          "specularFactor": 0.0
        }
      },
      "name": "Material__77.002",
      "pbrMetallicRoughness": {
        "baseColorFactor": [
          0.7,
          0.7,
          0.7,
          1.0
        ],
        "baseColorTexture": {
          "index": 6
        },
        "metallicFactor": 0.0,
        "roughnessFactor": 0.776
      }
    },
    {
      "doubleSided": true,
      "emissiveTexture": {
        "index": 6
      },
      "extensions": {
        "KHR_materials_specular": {
          "specularColorFactor": [
            1.0,
            1.0,
            1.0
          ],
          "specularFactor": 0.0
        }
      },
      "name": "Material__77",
      "pbrMetallicRoughness": {
        "baseColorFactor": [
          0.7,
          0.7,
          0.7,
          1.0
        ],
        "baseColorTexture": {
          "index": 6
        },
        "metallicFactor": 0.0,
        "roughnessFactor": 0.7759993173312528
      }
    }
  ],
  "meshes": [
    {
      "name": "Object_0",
      "primitives": [
        {
          "attributes": {
            "NORMAL": 1,
            "POSITION": 0,
            "TEXCOORD_0": 2
          },
          "indices": 3,
          "material": 0,
          "mode": 4
        }
      ]
    },
    {
      "name": "Object_1",
      "primitives": [
        {
          "attributes": {
            "NORMAL": 5,
            "POSITION": 4,
            "TEXCOORD_0": 6
          },
          "indices": 7,
          "material": 1,
          "mode": 4
        }
      ]
    },
    {
      "name": "Object_2",
      "primitives": [
        {
          "attributes": {
            "NORMAL": 9,
            "POSITION": 8,
            "TEXCOORD_0": 10
          },
          "indices": 11,
          "material": 2,
          "mode": 4
        }
      ]
    },
    {
      "name": "Object_3",
      "primitives": [
        {
          "attributes": {
            "NORMAL": 13,
            "POSITION": 12,
            "TEXCOORD_0": 14
          },
          "indices": 15,
          "material": 3,
          "mode": 4
        }
      ]
    },
    {
      "name": "Object_4",
      "primitives": [
        {
          "attributes": {
            "NORMAL": 17,
            "POSITION": 16,
            "TEXCOORD_0": 18
          },
          "indices": 19,
          "material": 4,
          "mode": 4
        }
      ]
    },
    {
      "name": "Object_5",
      "primitives": [
        {
          "attributes": {
            "NORMAL": 21,
            "POSITION": 20,
            "TEXCOORD_0": 22
          },
          "indices": 23,
          "material": 5,
          "mode": 4
        }
      ]
    },
    {
      "name": "Object_6",
      "primitives": [
        {
          "attributes": {
            "NORMAL": 25,
            "POSITION": 24,
            "TEXCOORD_0": 26,
            "TEXCOORD_1": 27
          },
          "indices": 28,
          "material": 6,
          "mode": 4
        }
      ]
    },
    {
      "name": "Object_7",
      "primitives": [
        {
          "attributes": {
            "NORMAL": 30,
            "POSITION": 29,
            "TEXCOORD_0": 31,
            "TEXCOORD_1": 32
          },
          "indices": 33,
          "material": 7,
          "mode": 4
        }
      ]
    }
  ],
  "nodes": [
    {
      "children": [
        1
      ],
      "matrix": [
        1.0,
        0.0,
        0.0,
        0.0,
        0.0,
        2.220446049250313e-16,
        -1.0,
        0.0,
        0.0,
        1.0,
        2.220446049250313e-16,
        0.0,
        0.0,
        0.0,
        0.0,
        1.0
      ],
      "name": "Sketchfab_model"
    },
    {
      "children": [
        2
      ],
      "name": "root"
    },
    {
      "children": [
        3,
        15,
        19
      ],
      "matrix": [
        1.0,
        0.0,
        0.0,
        0.0,
        0.0,
        2.220446049250313e-16,
        1.0,
        0.0,
        0.0,
        -1.0,
        2.220446049250313e-16,
        0.0,
        0.0,
        0.0,
        0.0,
        1.0
      ],
      "name": "GLTF_SceneRootNode"
    },
    {
      "children": [
        4
      ],
      "matrix": [
        0.0,
        0.0,
        -1.0,
        0.0,
        -1.0,
        0.0,
        0.0,
        0.0,
        0.0,
        1.0,
        0.0,
        0.0,
        0.0,
        0.0,
        0.0,
        1.0
      ],
      "name": "Sketchfab_model.001_6"
    },
    {
      "children": [
        5,
        7,
        9,
        11,
        13
      ],
      "name": "finn.obj.cleaner.materialmerger.gles_5"
    },
    {
      "children": [
        6
      ],
      "name": "Object_2_0"
    },
    {
      "mesh": 0,
      "name": "Object_6"
    },
    {
      "children": [
        8
      ],
      "name": "Object_3_1"
    },
    {
      "mesh": 1,
      "name": "Object_8"
    },
    {
      "children": [
        10
      ],
      "name": "Object_5_2"
    },
    {
      "mesh": 2,
      "name": "Object_10"
    },
    {
      "children": [
        12
      ],
      "name": "Object_6_3"
    },
    {
      "mesh": 3,
      "name": "Object_12"
    },
    {
      "children": [
        14
      ],
      "name": "Object_7_4"
    },
    {
      "mesh": 4,
      "name": "Object_14"
    },
    {
      "children": [
        16
      ],
      "matrix": [
        0.0,
        0.0,
        -1.0,
        0.0,
        -1.0,
        0.0,
        0.0,
        0.0,
        0.0,
        1.0,
        0.0,
        0.0,
        0.0,
        0.0,
        0.0,
        1.0
      ],
      "name": "Sketchfab_model.002_11"
    },
    {
      "children": [
        17
      ],
      "name": "finn.obj.cleaner.materialmerger.gles.001_10"
    },
    {
      "children": [
        18
      ],
      "name": "Object_4.001_9"
    },
    {
      "mesh": 5,
      "name": "Object_18"
    },
    {
      "children": [
        20
      ],
      "matrix": [
        1.0,
        0.0,
        -0.0,
        0.0,
        -0.0,
        -3.371747936409264e-07,
        -0.999999999999943,
        0.0,
        0.0,
        0.999999999999943,
        -3.371747936409264e-07,
        0.0,
        -2.53653883934021,
        0.0,
        0.0,
        1.0
      ],
      "name": "Sketchfab_model.004_16"
    },
    {
      "children": [
        21
      ],
      "name": "Finn McMissile.obj.cleaner.materialmerger.gles.002_15"
    },
    {
      "children": [
        22,
        23
      ],
      "matrix": [
        1.2193948576060567e-05,
        0.013136598210028307,
        1.765018257679258e-09,
        0.0,
        0.011041677456602792,
        -1.0249354128363376e-05,
        -1.4849248403345149e-09,
        0.0,
        -1.5360441025232326e-09,
        1.5374705856729382e-09,
        -0.011432404629885942,
        0.0,
        0.43012142181396484,
        0.0,
        0.7319114804267883,
        1.0
      ],
      "name": "Object_4.002_14"
    },
    {
      "mesh": 6,
      "name": "Object_22"
    },
    {
      "mesh": 7,
      "name": "Object_23"
    }
  ],
  "samplers": [
    {
      "magFilter": 9729,
      "minFilter": 9987,
      "wrapS": 10497,
      "wrapT": 10497
    }
  ],
  "scene": 0,
  "scenes": [
    {
      "name": "Sketchfab_Scene",
      "nodes": [
        0
      ]
    }
  ],
  "textures": [
    {
      "sampler": 0,
      "source": 0
    },
    {
      "sampler": 0,
      "source": 1
    },
    {
      "sampler": 0,
      "source": 2
    },
    {
      "sampler": 0,
      "source": 3
    },
    {
      "sampler": 0,
      "source": 4
    },
    {
      "sampler": 0,
      "source": 5
    },
    {
      "sampler": 0,
      "source": 6
    }
  ]
}
