{
  "accessors": [
    {
      "bufferView": 2,
      "componentType": 5126,
      "count": 420,
      "max": [
        4.149411201477051,
        2.8138587474823,
        0.5083155035972595
      ],
      "min": [
        -4.158271312713623,
        -1.3610860109329224,
        -0.44311970472335815
      ],
      "type": "VEC3"
    },
    {
      "bufferView": 2,
      "byteOffset": 5040,
      "componentType": 5126,
      "count": 420,
      "max": [
        0.9999964237213135,
        1.0,
        1.0
      ],
      "min": [
        -1.0,
        -1.0,
        -1.0
      ],
      "type": "VEC3"
    },
    {
      "bufferView": 1,
      "componentType": 5126,
      "count": 420,
      "max": [
        0.9834480285644531,
        0.9931640625
      ],
      "min": [
        0.0068359375,
        0.07751834392547607
      ],
      "type": "VEC2"
    },
    {
      "bufferView": 0,
      "componentType": 5125,
      "count": 1182,
      "type": "SCALAR"
    },
    {
      "bufferView": 2,
      "byteOffset": 10080,
      "componentType": 5126,
      "count": 7149,
      "max": [
        5.140764236450195,
        3.1938295364379883,
        0.5996791124343872
      ],
      "min": [
        -5.140764236450195,
        -3.1938297748565674,
        -0.5996790528297424
      ],
      "type": "VEC3"
    },
    {
      "bufferView": 2,
      "byteOffset": 95868,
      "componentType": 5126,
      "count": 7149,
      "max": [
        1.0,
        1.0,
        1.0
      ],
      "min": [
        -1.0,
        -1.0,
        -1.0
      ],
      "type": "VEC3"
    },
    {
      "bufferView": 1,
      "byteOffset": 3360,
      "componentType": 5126,
      "count": 7149,
      "max": [
        0.9964879751205444,
        0.9931640625
      ],
      "min": [
        0.00649416446685791,
        0.0012905597686767578
      ],
      "type": "VEC2"
    },
    {
      "bufferView": 1,
      "byteOffset": 60552,
      "componentType": 5126,
      "count": 7149,
      "max": [
        0.9964879751205444,
        0.9931640625
      ],
      "min": [
        0.00649416446685791,
        0.0012905597686767578
      ],
      "type": "VEC2"
    },
    {
      "bufferView": 0,
      "byteOffset": 4728,
      "componentType": 5125,
      "count": 26889,
      "type": "SCALAR"
    },
    {
      "bufferView": 2,
      "byteOffset": 181656,
      "componentType": 5126,
      "count": 4,
      "max": [
        1.0833582878112793,
        -2.9521660804748535,
        0.5475694537162781
      ],
      "min": [
        -1.0833582878112793,
        -2.9521660804748535,
        -0.5419020056724548
      ],
      "type": "VEC3"
    },
    {
      "bufferView": 2,
      "byteOffset": 181704,
      "componentType": 5126,
      "count": 4,
      "max": [
        0.0,
        -1.0,
        0.0
      ],
      "min": [
        0.0,
        -1.0,
        0.0
      ],
      "type": "VEC3"
    },
    {
      "bufferView": 1,
      "byteOffset": 117744,
      "componentType": 5126,
      "count": 4,
      "max": [
        0.5307320356369019,
        0.9484413266181946
      ],
      "min": [
        0.27954816818237305,
        0.8221407532691956
      ],
      "type": "VEC2"
    },
    {
      "bufferView": 0,
      "byteOffset": 112284,
      "componentType": 5125,
      "count": 6,
      "type": "SCALAR"
    },
    {
      "bufferView": 2,
      "byteOffset": 181752,
      "componentType": 5126,
      "count": 432,
      "max": [
        0.8405317068099976,
        0.4048091769218445,
        0.37739166617393494
      ],
      "min": [
        -0.8156028389930725,
        0.17523962259292603,
        -0.37739214301109314
      ],
      "type": "VEC3"
    },
    {
      "bufferView": 2,
      "byteOffset": 186936,
      "componentType": 5126,
      "count": 432,
      "max": [
        0.9999427795410156,
        0.6347885131835938,
        0.00010000427573686466
      ],
      "min": [
        -0.9999427795410156,
        -0.6347287893295288,
        -0.00010000427573686466
      ],
      "type": "VEC3"
    },
    {
      "bufferView": 1,
      "byteOffset": 117776,
      "componentType": 5126,
      "count": 432,
      "max": [
        0.0068359375,
        0.9931640625
      ],
      "min": [
        0.0068359375,
        0.9931640625
      ],
      "type": "VEC2"
    },
    {
      "bufferView": 0,
      "byteOffset": 112308,
      "componentType": 5125,
      "count": 1080,
      "type": "SCALAR"
    },
    {
      "bufferView": 2,
      "byteOffset": 192120,
      "componentType": 5126,
      "count": 5324,
      "max": [
        4.483142852783203,
        2.063920259475708,
        0.48223745822906494
      ],
      "min": [
        -4.504680156707764,
        -3.1080362796783447,
        -0.48223745822906494
      ],
      "type": "VEC3"
    },
    {
      "bufferView": 2,
      "byteOffset": 256008,
      "componentType": 5126,
      "count": 5324,
      "max": [
        1.0,
        1.0,
        1.0
      ],
      "min": [
        -1.0,
        -1.0,
        -1.0
      ],
      "type": "VEC3"
    },
    {
      "bufferView": 1,
      "byteOffset": 121232,
      "componentType": 5126,
      "count": 5324,
      "max": [
        0.9981880187988281,
        0.9979400038719177
      ],
      "min": [
        0.0072999573312699795,
        0.0024828314781188965
      ],
      "type": "VEC2"
    },
    {
      "bufferView": 0,
      "byteOffset": 116628,
      "componentType": 5125,
      "count": 19050,
      "type": "SCALAR"
    }
  ],
  "asset": {
    "extras": {
      "author": "gurtovshchik (https://sketchfab.com/gurtovshchik)",
      "license": "CC-BY-4.0 (http://creativecommons.org/licenses/by/4.0/)",
      "source": "https://sketchfab.com/3d-models/ompact-cassette-34a7fbdef6f34559a0ce200f0daceb28",
      "title": "Сompact Cassette"
    },
    "generator": "Sketchfab-16.74.0",
    "version": "2.0"
  },
  "bufferViews": [
    {
      "buffer": 0,
      "byteLength": 192828,
      "name": "floatBufferViews",
      "target": 34963
    },
    {
      "buffer": 0,
      "byteLength": 163824,
      "byteOffset": 192828,
      "byteStride": 8,
      "name": "floatBufferViews",
      "target": 34962
    },
    {
      "buffer": 0,
      "byteLength": 319896,
      "byteOffset": 356652,
      "byteStride": 12,
      "name": "floatBufferViews",
      "target": 34962
    }
  ],
  "buffers": [
    {
      "byteLength": 676548,
      "uri": "scene.bin"
    }
  ],
  "extensionsUsed": [
    "KHR_texture_transform",
    "KHR_materials_emissive_strength",
    "KHR_materials_specular"
  ],
  "images": [
    {
      "uri": "textures/lambert3_baseColor.jpeg"
    },
    {
      "uri": "textures/corpusLambert_baseColor.jpeg"
    },
    {
      "uri": "textures/centralPart_blinn6_baseColor.jpeg"
    }
  ],
  "materials": [
    {
      "name": "lambert3",
      "pbrMetallicRoughness": {
        "baseColorTexture": {
          "extensions": {
            "KHR_texture_transform": {
              "rotation": 3.141592653589793
            }
          },
          "index": 0
        },
        "metallicFactor": 0.2,
        "roughnessFactor": 0.8
      }
    },
    {
      "name": "corpusLambert",
      "pbrMetallicRoughness": {
        "baseColorTexture": {
          "extensions": {
            "KHR_texture_transform": {
              "rotation": 3.141592653589793
            }
          },
          "index": 1
        },
        "metallicFactor": 0.2,
        "roughnessFactor": 0.4764902341359352
      }
    },
    {
      "emissiveFactor": [
        0.0299158,
        0.0299158,
        0.0299158
      ],
      "extensions": {
        "KHR_materials_emissive_strength": {
          "emissiveStrength": 3.89060833377048
        },
        "KHR_materials_specular": {
          "specularColorFactor": [
            1.0,
            1.0,
            1.0
          ],
          "specularFactor": 1.0
        }
      },
      "name": "StingrayPBS1",
      "pbrMetallicRoughness": {
        "baseColorFactor": [
          0.5008336174788858,
          0.5008336174788858,
          0.5008336174788858,
          1.0
        ],
        "metallicFactor": 0.9952380119719992,
        "roughnessFactor": 0.5
      }
    },
    {
      "name": "centralPart_blinn6",
      "pbrMetallicRoughness": {
        "baseColorTexture": {
          "extensions": {
            "KHR_texture_transform": {
              "rotation": 3.141592653589793
            }
          },
          "index": 2
        },
        "metallicFactor": 0.4,
        "roughnessFactor": 0.6
      }
    }
  ],
  "meshes": [
    {
      "name": "Object_0",
      "primitives": [
        {
          "attributes": {
            "NORMAL": 1,
            "POSITION": 0,
            "TEXCOORD_0": 2
          },
          "indices": 3,
          "material": 0,
          "mode": 4
        }
      ]
    },
    {
      "name": "Object_1",
      "primitives": [
        {
          "attributes": {
            "NORMAL": 5,
            "POSITION": 4,
            "TEXCOORD_0": 6,
            "TEXCOORD_1": 7
          },
          "indices": 8,
          "material": 1,
          "mode": 4
        }
      ]
    },
    {
      "name": "Object_2",
      "primitives": [
        {
          "attributes": {
            "NORMAL": 10,
            "POSITION": 9,
            "TEXCOORD_0": 11
          },
          "indices": 12,
          "material": 2,
          "mode": 4
        }
      ]
    },
    {
      "name": "Object_3",
      "primitives": [
        {
          "attributes": {
            "NORMAL": 14,
            "POSITION": 13,
            "TEXCOORD_0": 15
          },
          "indices": 16,
          "material": 2,
          "mode": 4
        }
      ]
    },
    {
      "name": "Object_4",
      "primitives": [
        {
          "attributes": {
            "NORMAL": 18,
            "POSITION": 17,
            "TEXCOORD_0": 19
          },
          "indices": 20,
          "material": 3,
          "mode": 4
        }
      ]
    }
  ],
  "nodes": [
    {
      "children": [
        1
      ],
      "matrix": [
        1.0,
        0.0,
        0.0,
        0.0,
        0.0,
        2.220446049250313e-16,
        -1.0,
        0.0,
        0.0,
        1.0,
        2.220446049250313e-16,
        0.0,
        0.0,
        0.0,
        0.0,
        1.0
      ],
      "name": "Sketchfab_model"
    },
    {
      "children": [
        2
      ],
      "name": "root"
    },
    {
      "children": [
        3
      ],
      "matrix": [
        1.0,
        0.0,
        0.0,
        0.0,
        0.0,
        2.220446049250313e-16,
        1.0,
        0.0,
        0.0,
        -1.0,
        2.220446049250313e-16,
        0.0,
        0.0,
        0.0,
        0.0,
        1.0
      ],
      "name": "GLTF_SceneRootNode"
    },
    {
      "children": [
        4,
        6,
        8,
        10,
        12
      ],
      "matrix": [
        0.009999999776482582,
        0.0,
        0.0,
        0.0,
        0.0,
        0.009999999776482582,
        0.0,
        0.0,
        0.0,
        0.0,
        0.009999999776482582,
        0.0,
        0.0,
        0.0,
        0.0,
        1.0
      ],
      "name": "group1_5"
    },
    {
      "children": [
        5
      ],
      "name": "bumaga_0"
    },
    {
      "mesh": 0,
      "name": "Object_5"
    },
    {
      "children": [
        7
      ],
      "name": "corpus_1"
    },
    {
      "mesh": 1,
      "name": "Object_7"
    },
    {
      "children": [
        9
      ],
      "name": "metalPlate_2"
    },
    {
      "mesh": 2,
      "name": "Object_9"
    },
    {
      "children": [
        11
      ],
      "name": "polySurface43_3"
    },
    {
      "mesh": 3,
      "name": "Object_11"
    },
    {
      "children": [
        13
      ],
      "name": "polySurface44_4"
    },
    {
      "mesh": 4,
      "name": "Object_13"
    }
  ],
  "samplers": [
    {
      "magFilter": 9729,
      "minFilter": 9987,
      "wrapS": 33648,
      "wrapT": 10497
    }
  ],
  "scene": 0,
  "scenes": [
    {
      "name": "Sketchfab_Scene",
      "nodes": [
        0
      ]
    }
  ],
  "textures": [
    {
      "sampler": 0,
      "source": 0
    },
    {
      "sampler": 0,
      "source": 1
    },
    {
      "sampler": 0,
      "source": 2
    }
  ]
}
