{
	"asset":{
		"version":"2.0",
		"generator":"Maxon Cinema 4D 2025.3.1 (#200000219)"
	},
	"scenes":[{
		"nodes":[0]
	}],
	"materials":[{
		"pbrMetallicRoughness":{
			"baseColorFactor":[0.805755395683453,
			0.0,
			0.0,
			1.0],
			"metallicFactor":0.0,
			"roughnessFactor":0.20000000298023225
		},
		"emissiveFactor":[0.0,
		0.0,
		0.0],
		"alphaMode":"OPAQUE",
		"doubleSided":true,
		"name":"Mat"
	}],
	"nodes":[{
		"name":"Text",
		"children":[1]
	},
	{
		"name":"1",
		"translation":[-2.8910000324249269,
		0.0,
		0.0],
		"rotation":[0.0,
		0.0,
		0.0,
		-1.0],
		"scale":[1.0,
		1.0,
		1.0],
		"children":[2]
	},
	{
		"name":"comics",
		"children":[3,
		4,
		5,
		6,
		7,
		8]
	},
	{
		"name":"c",
		"mesh":0
	},
	{
		"name":"o",
		"mesh":1,
		"translation":[1.0479999780654908,
		0.0,
		0.0],
		"rotation":[0.0,
		0.0,
		0.0,
		-1.0],
		"scale":[1.0,
		1.0,
		1.0]
	},
	{
		"name":"m",
		"mesh":2,
		"translation":[1.968000054359436,
		0.0,
		0.0],
		"rotation":[0.0,
		0.0,
		0.0,
		-1.0],
		"scale":[1.0,
		1.0,
		1.0]
	},
	{
		"name":"i",
		"mesh":3,
		"translation":[3.2100000381469728,
		0.0,
		0.0],
		"rotation":[0.0,
		0.0,
		0.0,
		-1.0],
		"scale":[1.0,
		1.0,
		1.0]
	},
	{
		"name":"c",
		"mesh":4,
		"translation":[3.7179999351501467,
		0.0,
		0.0],
		"rotation":[0.0,
		0.0,
		0.0,
		-1.0],
		"scale":[1.0,
		1.0,
		1.0]
	},
	{
		"name":"s",
		"mesh":5,
		"translation":[4.765999794006348,
		0.0,
		0.0],
		"rotation":[0.0,
		0.0,
		0.0,
		-1.0],
		"scale":[1.0,
		1.0,
		1.0]
	}],
	"meshes":[{
		"name":"c",
		"primitives":[{
			"attributes":{
				"POSITION":1,
				"NORMAL":2,
				"TEXCOORD_0":3
			},
			"material":0,
			"indices":0
		}]
	},
	{
		"name":"o",
		"primitives":[{
			"attributes":{
				"POSITION":5,
				"NORMAL":6,
				"TEXCOORD_0":7
			},
			"material":0,
			"indices":4
		}]
	},
	{
		"name":"m",
		"primitives":[{
			"attributes":{
				"POSITION":9,
				"NORMAL":10,
				"TEXCOORD_0":11
			},
			"material":0,
			"indices":8
		}]
	},
	{
		"name":"i",
		"primitives":[{
			"attributes":{
				"POSITION":13,
				"NORMAL":14,
				"TEXCOORD_0":15
			},
			"material":0,
			"indices":12
		}]
	},
	{
		"name":"c",
		"primitives":[{
			"attributes":{
				"POSITION":17,
				"NORMAL":18,
				"TEXCOORD_0":19
			},
			"material":0,
			"indices":16
		}]
	},
	{
		"name":"s",
		"primitives":[{
			"attributes":{
				"POSITION":21,
				"NORMAL":22,
				"TEXCOORD_0":23
			},
			"material":0,
			"indices":20
		}]
	}],
	"accessors":[{
		"bufferView":0,
		"type":"SCALAR",
		"componentType":5123,
		"count":672,
		"byteOffset":0,
		"min":[0],
		"max":[671]
	},
	{
		"bufferView":1,
		"type":"VEC3",
		"componentType":5126,
		"count":672,
		"byteOffset":0,
		"min":[0.04800000041723251,
		0.0,
		-0.27799999713897707],
		"max":[0.9440000057220459,
		1.968000054359436,
		0.0]
	},
	{
		"bufferView":1,
		"type":"VEC3",
		"componentType":5126,
		"count":672,
		"byteOffset":12,
		"min":[-1.0,
		-1.0,
		-1.0],
		"max":[1.0,
		1.0,
		1.0]
	},
	{
		"bufferView":1,
		"type":"VEC2",
		"componentType":5126,
		"count":672,
		"byteOffset":24,
		"min":[0.0,
		0.0],
		"max":[1.0,
		1.0]
	},
	{
		"bufferView":2,
		"type":"SCALAR",
		"componentType":5123,
		"count":588,
		"byteOffset":0,
		"min":[0],
		"max":[587]
	},
	{
		"bufferView":3,
		"type":"VEC3",
		"componentType":5126,
		"count":588,
		"byteOffset":0,
		"min":[0.08799999952316284,
		0.20000000298023225,
		-0.27799999713897707],
		"max":[0.8420000076293945,
		1.9620000123977662,
		0.0]
	},
	{
		"bufferView":3,
		"type":"VEC3",
		"componentType":5126,
		"count":588,
		"byteOffset":12,
		"min":[-1.0,
		-1.0,
		-1.0],
		"max":[1.0,
		1.0,
		1.0]
	},
	{
		"bufferView":3,
		"type":"VEC2",
		"componentType":5126,
		"count":588,
		"byteOffset":24,
		"min":[0.0,
		0.0],
		"max":[1.0,
		1.0]
	},
	{
		"bufferView":4,
		"type":"SCALAR",
		"componentType":5123,
		"count":852,
		"byteOffset":0,
		"min":[0],
		"max":[851]
	},
	{
		"bufferView":5,
		"type":"VEC3",
		"componentType":5126,
		"count":852,
		"byteOffset":0,
		"min":[0.052000001072883609,
		0.2160000056028366,
		-0.27799999713897707],
		"max":[1.1480000019073487,
		1.9620000123977662,
		0.0]
	},
	{
		"bufferView":5,
		"type":"VEC3",
		"componentType":5126,
		"count":852,
		"byteOffset":12,
		"min":[-1.0,
		-1.0,
		-1.0],
		"max":[1.0,
		1.0,
		1.0]
	},
	{
		"bufferView":5,
		"type":"VEC2",
		"componentType":5126,
		"count":852,
		"byteOffset":24,
		"min":[0.0,
		0.0],
		"max":[1.0,
		1.0]
	},
	{
		"bufferView":6,
		"type":"SCALAR",
		"componentType":5123,
		"count":264,
		"byteOffset":0,
		"min":[0],
		"max":[263]
	},
	{
		"bufferView":7,
		"type":"VEC3",
		"componentType":5126,
		"count":264,
		"byteOffset":0,
		"min":[0.04800000041723251,
		0.2280000001192093,
		-0.27799999713897707],
		"max":[0.39800000190734866,
		1.9620000123977662,
		0.0]
	},
	{
		"bufferView":7,
		"type":"VEC3",
		"componentType":5126,
		"count":264,
		"byteOffset":12,
		"min":[-1.0,
		-1.0,
		-1.0],
		"max":[1.0,
		1.0,
		1.0]
	},
	{
		"bufferView":7,
		"type":"VEC2",
		"componentType":5126,
		"count":264,
		"byteOffset":24,
		"min":[0.0,
		0.0],
		"max":[1.0,
		1.0]
	},
	{
		"bufferView":8,
		"type":"SCALAR",
		"componentType":5123,
		"count":672,
		"byteOffset":0,
		"min":[0],
		"max":[671]
	},
	{
		"bufferView":9,
		"type":"VEC3",
		"componentType":5126,
		"count":672,
		"byteOffset":0,
		"min":[0.04800000041723251,
		0.0,
		-0.27799999713897707],
		"max":[0.9440000057220459,
		1.968000054359436,
		0.0]
	},
	{
		"bufferView":9,
		"type":"VEC3",
		"componentType":5126,
		"count":672,
		"byteOffset":12,
		"min":[-1.0,
		-1.0,
		-1.0],
		"max":[1.0,
		1.0,
		1.0]
	},
	{
		"bufferView":9,
		"type":"VEC2",
		"componentType":5126,
		"count":672,
		"byteOffset":24,
		"min":[0.0,
		0.0],
		"max":[1.0,
		1.0]
	},
	{
		"bufferView":10,
		"type":"SCALAR",
		"componentType":5123,
		"count":852,
		"byteOffset":0,
		"min":[0],
		"max":[851]
	},
	{
		"bufferView":11,
		"type":"VEC3",
		"componentType":5126,
		"count":852,
		"byteOffset":0,
		"min":[0.06400000303983689,
		0.0,
		-0.27799999713897707],
		"max":[0.9679999947547913,
		1.968000054359436,
		0.0]
	},
	{
		"bufferView":11,
		"type":"VEC3",
		"componentType":5126,
		"count":852,
		"byteOffset":12,
		"min":[-1.0,
		-1.0,
		-1.0],
		"max":[1.0,
		1.0,
		1.0]
	},
	{
		"bufferView":11,
		"type":"VEC2",
		"componentType":5126,
		"count":852,
		"byteOffset":24,
		"min":[0.0,
		0.0],
		"max":[1.0,
		1.0]
	}],
	"bufferViews":[{
		"buffer":0,
		"byteOffset":0,
		"byteLength":1344,
		"target":34963
	},
	{
		"buffer":0,
		"byteOffset":1344,
		"byteLength":21504,
		"target":34962,
		"byteStride":32
	},
	{
		"buffer":1,
		"byteOffset":0,
		"byteLength":1176,
		"target":34963
	},
	{
		"buffer":1,
		"byteOffset":1176,
		"byteLength":18816,
		"target":34962,
		"byteStride":32
	},
	{
		"buffer":2,
		"byteOffset":0,
		"byteLength":1704,
		"target":34963
	},
	{
		"buffer":2,
		"byteOffset":1704,
		"byteLength":27264,
		"target":34962,
		"byteStride":32
	},
	{
		"buffer":3,
		"byteOffset":0,
		"byteLength":528,
		"target":34963
	},
	{
		"buffer":3,
		"byteOffset":528,
		"byteLength":8448,
		"target":34962,
		"byteStride":32
	},
	{
		"buffer":4,
		"byteOffset":0,
		"byteLength":1344,
		"target":34963
	},
	{
		"buffer":4,
		"byteOffset":1344,
		"byteLength":21504,
		"target":34962,
		"byteStride":32
	},
	{
		"buffer":5,
		"byteOffset":0,
		"byteLength":1704,
		"target":34963
	},
	{
		"buffer":5,
		"byteOffset":1704,
		"byteLength":27264,
		"target":34962,
		"byteStride":32
	}],
	"buffers":[{
		"uri":"data:application/octet-stream;base64,",
		"byteLength":22848
	},
	{
		"uri":"data:application/octet-stream;base64,",
		"byteLength":19992
	},
	{
		"uri":"data:application/octet-stream;base64,",
		"byteLength":28968
	},
	{
		"uri":"data:application/octet-stream;base64,",
		"byteLength":8976
	},
	{
		"uri":"data:application/octet-stream;base64,",
		"byteLength":22848
	},
	{
		"uri":"data:application/octet-stream;base64,",
		"byteLength":28968
	}]
}