{
	"asset":{
		"version":"2.0",
		"generator":"Maxon Cinema 4D 2025.3.1 (#200000219)"
	},
	"scenes":[{
		"nodes":[0]
	}],
	"materials":[{
		"pbrMetallicRoughness":{
			"baseColorFactor":[0.21404114365577699,
			0.21404114365577699,
			0.21404114365577699,
			1.0],
			"metallicFactor":0.9160000435076654,
			"roughnessFactor":0.20000000298023225
		},
		"emissiveFactor":[0.0,
		0.0,
		0.0],
		"alphaMode":"OPAQUE",
		"doubleSided":true,
		"name":"Mat"
	}],
	"nodes":[{
		"name":"Text",
		"children":[1]
	},
	{
		"name":"1",
		"translation":[-2.58935546875,
		0.0,
		0.0],
		"rotation":[0.0,
		0.0,
		0.0,
		-1.0],
		"scale":[1.0,
		1.0,
		1.0],
		"children":[2]
	},
	{
		"name":"Cars",
		"children":[3,
		4,
		5,
		6]
	},
	{
		"name":"C",
		"mesh":0
	},
	{
		"name":"a",
		"mesh":1,
		"translation":[1.509765625,
		0.0,
		0.0],
		"rotation":[0.0,
		0.0,
		0.0,
		-1.0],
		"scale":[1.0,
		1.0,
		1.0]
	},
	{
		"name":"r",
		"mesh":2,
		"translation":[2.76953125,
		0.0,
		0.0],
		"rotation":[0.0,
		0.0,
		0.0,
		-1.0],
		"scale":[1.0,
		1.0,
		1.0]
	},
	{
		"name":"s",
		"mesh":3,
		"translation":[3.9130859375,
		0.0,
		0.0],
		"rotation":[0.0,
		0.0,
		0.0,
		-1.0],
		"scale":[1.0,
		1.0,
		1.0]
	}],
	"meshes":[{
		"name":"C",
		"primitives":[{
			"attributes":{
				"POSITION":1,
				"NORMAL":2,
				"TEXCOORD_0":3
			},
			"material":0,
			"indices":0
		}]
	},
	{
		"name":"a",
		"primitives":[{
			"attributes":{
				"POSITION":5,
				"NORMAL":6,
				"TEXCOORD_0":7
			},
			"material":0,
			"indices":4
		}]
	},
	{
		"name":"r",
		"primitives":[{
			"attributes":{
				"POSITION":9,
				"NORMAL":10,
				"TEXCOORD_0":11
			},
			"material":0,
			"indices":8
		}]
	},
	{
		"name":"s",
		"primitives":[{
			"attributes":{
				"POSITION":13,
				"NORMAL":14,
				"TEXCOORD_0":15
			},
			"material":0,
			"indices":12
		}]
	}],
	"accessors":[{
		"bufferView":0,
		"type":"SCALAR",
		"componentType":5123,
		"count":1668,
		"byteOffset":0,
		"min":[0],
		"max":[1667]
	},
	{
		"bufferView":1,
		"type":"VEC3",
		"componentType":5126,
		"count":1668,
		"byteOffset":0,
		"min":[0.0859375,
		0.0,
		-0.27799999713897707],
		"max":[1.5556640625,
		1.3740234375,
		0.0]
	},
	{
		"bufferView":1,
		"type":"VEC3",
		"componentType":5126,
		"count":1668,
		"byteOffset":12,
		"min":[-0.999570369720459,
		-1.0,
		-1.0],
		"max":[0.9995546340942383,
		1.0,
		1.0]
	},
	{
		"bufferView":1,
		"type":"VEC2",
		"componentType":5126,
		"count":1668,
		"byteOffset":24,
		"min":[0.0,
		0.0],
		"max":[1.0,
		1.0]
	},
	{
		"bufferView":2,
		"type":"SCALAR",
		"componentType":5123,
		"count":1176,
		"byteOffset":0,
		"min":[0],
		"max":[1175]
	},
	{
		"bufferView":3,
		"type":"VEC3",
		"componentType":5126,
		"count":1176,
		"byteOffset":0,
		"min":[-0.0244140625,
		-0.01953125,
		-0.27799999713897707],
		"max":[1.26171875,
		0.6640625,
		0.0]
	},
	{
		"bufferView":3,
		"type":"VEC3",
		"componentType":5126,
		"count":1176,
		"byteOffset":12,
		"min":[-0.9996740221977234,
		-1.0,
		-1.0],
		"max":[0.9988322854042053,
		1.0,
		1.0]
	},
	{
		"bufferView":3,
		"type":"VEC2",
		"componentType":5126,
		"count":1176,
		"byteOffset":24,
		"min":[0.0,
		0.0],
		"max":[1.0,
		1.0]
	},
	{
		"bufferView":4,
		"type":"SCALAR",
		"componentType":5123,
		"count":1092,
		"byteOffset":0,
		"min":[0],
		"max":[1091]
	},
	{
		"bufferView":5,
		"type":"VEC3",
		"componentType":5126,
		"count":1092,
		"byteOffset":0,
		"min":[-0.015625,
		0.0,
		-0.27799999713897707],
		"max":[1.1435546875,
		0.90234375,
		0.0]
	},
	{
		"bufferView":5,
		"type":"VEC3",
		"componentType":5126,
		"count":1092,
		"byteOffset":12,
		"min":[-0.9996960759162903,
		-1.0,
		-1.0],
		"max":[0.9990094304084778,
		1.0,
		1.0]
	},
	{
		"bufferView":5,
		"type":"VEC2",
		"componentType":5126,
		"count":1092,
		"byteOffset":24,
		"min":[0.0,
		0.0],
		"max":[1.0,
		1.0]
	},
	{
		"bufferView":6,
		"type":"SCALAR",
		"componentType":5123,
		"count":1392,
		"byteOffset":0,
		"min":[0],
		"max":[1391]
	},
	{
		"bufferView":7,
		"type":"VEC3",
		"componentType":5126,
		"count":1392,
		"byteOffset":0,
		"min":[-0.005859375,
		0.0,
		-0.27799999713897707],
		"max":[1.1796875,
		0.9677734375,
		0.0]
	},
	{
		"bufferView":7,
		"type":"VEC3",
		"componentType":5126,
		"count":1392,
		"byteOffset":12,
		"min":[-0.999513566493988,
		-1.0,
		-1.0],
		"max":[0.9991424083709717,
		1.0,
		1.0]
	},
	{
		"bufferView":7,
		"type":"VEC2",
		"componentType":5126,
		"count":1392,
		"byteOffset":24,
		"min":[0.0,
		0.0],
		"max":[1.0,
		1.0]
	}],
	"bufferViews":[{
		"buffer":0,
		"byteOffset":0,
		"byteLength":3336,
		"target":34963
	},
	{
		"buffer":0,
		"byteOffset":3336,
		"byteLength":53376,
		"target":34962,
		"byteStride":32
	},
	{
		"buffer":1,
		"byteOffset":0,
		"byteLength":2352,
		"target":34963
	},
	{
		"buffer":1,
		"byteOffset":2352,
		"byteLength":37632,
		"target":34962,
		"byteStride":32
	},
	{
		"buffer":2,
		"byteOffset":0,
		"byteLength":2184,
		"target":34963
	},
	{
		"buffer":2,
		"byteOffset":2184,
		"byteLength":34944,
		"target":34962,
		"byteStride":32
	},
	{
		"buffer":3,
		"byteOffset":0,
		"byteLength":2784,
		"target":34963
	},
	{
		"buffer":3,
		"byteOffset":2784,
		"byteLength":44544,
		"target":34962,
		"byteStride":32
	}],
	"buffers":[{
		"uri":"data:application/octet-stream;base64,",
		"byteLength":56712
	},
	{
		"uri":"data:application/octet-stream;base64,",
		"byteLength":39984
	},
	{
		"uri":"data:application/octet-stream;base64,",
		"byteLength":37128
	},
	{
		"uri":"data:application/octet-stream;base64,",
		"byteLength":47328
	}]
}