{
	"asset":{
		"version":"2.0",
		"generator":"Sketchfab-16.72.0",
		"copyright":""
	},
	"scenes":[{
		"nodes":[0]
	}],
	"nodes":[{
		"rotation":[0.0,
		0.0,
		0.0,
		-1.0],
		"name":"Sketchfab_Scene",
		"translation":[-0.008586482144892216,
		0.600372850894928,
		0.007570438552647829],
		"scale":[1.0,
		1.0,
		1.0],
		"children":[1]
	},
	{
		"rotation":[0.7071067690849304,
		0.0,
		0.0,
		-0.7071067690849304],
		"name":"Sketchfab_model",
		"translation":[-7.414624214172363,
		-0.600372850894928,
		5.7563157081604],
		"scale":[1.0,
		1.0,
		1.0],
		"children":[2]
	},
	{
		"name":"root",
		"children":[3]
	},
	{
		"rotation":[-0.7071067690849304,
		0.0,
		0.0,
		-0.7071067690849304],
		"name":"GLTF_SceneRootNode",
		"translation":[0.0,
		0.0,
		0.0],
		"scale":[1.0,
		1.0,
		1.0],
		"children":[4]
	},
	{
		"rotation":[0.7071067690849304,
		0.0,
		0.0,
		-0.7071067690849304],
		"name":"Sketchfab_model_0",
		"translation":[0.0,
		0.0,
		0.0],
		"scale":[1.0,
		1.0,
		1.0],
		"children":[5]
	},
	{
		"name":"Carla_Veloso.obj.cleaner.materialmerger.gles_1",
		"children":[6,
		7,
		8,
		9,
		10]
	},
	{
		"name":"Object_2_2",
		"children":[11]
	},
	{
		"name":"Object_3_3",
		"children":[12]
	},
	{
		"name":"Object_4_4",
		"children":[13]
	},
	{
		"name":"Object_5_5",
		"children":[14]
	},
	{
		"name":"Object_6_6",
		"children":[15]
	},
	{
		"mesh":0,
		"name":"Object_6"
	},
	{
		"mesh":1,
		"name":"Object_8"
	},
	{
		"mesh":2,
		"name":"Object_10"
	},
	{
		"mesh":3,
		"name":"Object_12"
	},
	{
		"mesh":4,
		"name":"Object_14"
	}],
	"meshes":[{
		"name":"Object_6",
		"primitives":[{
			"attributes":{
				"POSITION":1,
				"NORMAL":2,
				"TEXCOORD_0":3
			},
			"indices":0,
			"material":0
		}]
	},
	{
		"name":"Object_8",
		"primitives":[{
			"attributes":{
				"POSITION":5,
				"NORMAL":6,
				"TEXCOORD_0":7
			},
			"indices":4,
			"material":1
		}]
	},
	{
		"name":"Object_10",
		"primitives":[{
			"attributes":{
				"POSITION":9,
				"NORMAL":10,
				"TEXCOORD_0":11
			},
			"indices":8,
			"material":2
		}]
	},
	{
		"name":"Object_12",
		"primitives":[{
			"attributes":{
				"POSITION":13,
				"NORMAL":14,
				"TEXCOORD_0":15
			},
			"indices":12,
			"material":3
		}]
	},
	{
		"name":"Object_14",
		"primitives":[{
			"attributes":{
				"POSITION":17,
				"NORMAL":18,
				"TEXCOORD_0":19
			},
			"indices":16,
			"material":4
		}]
	}],
	"accessors":[{
		"bufferView":0,
		"type":"SCALAR",
		"componentType":5123,
		"count":21564,
		"byteOffset":0,
		"min":[0],
		"max":[21563]
	},
	{
		"bufferView":1,
		"type":"VEC3",
		"componentType":5126,
		"count":21564,
		"byteOffset":0,
		"min":[6.2172136306762699,
		3.1677000522613527,
		0.07405886799097061],
		"max":[8.611413955688477,
		7.876613616943359,
		1.3804733753204346]
	},
	{
		"bufferView":1,
		"type":"VEC3",
		"componentType":5126,
		"count":21564,
		"byteOffset":12,
		"min":[-1.0,
		-1.0,
		-1.0],
		"max":[1.0,
		1.0,
		1.0]
	},
	{
		"bufferView":1,
		"type":"VEC2",
		"componentType":5126,
		"count":21564,
		"byteOffset":24,
		"min":[0.0008439868688583374,
		-0.9988861083984375],
		"max":[0.998046875,
		-0.0007809996604919434]
	},
	{
		"bufferView":2,
		"type":"SCALAR",
		"componentType":5123,
		"count":6240,
		"byteOffset":0,
		"min":[0],
		"max":[6239]
	},
	{
		"bufferView":3,
		"type":"VEC3",
		"componentType":5126,
		"count":6240,
		"byteOffset":0,
		"min":[6.253902912139893,
		3.6833860874176027,
		0.00787289533764124],
		"max":[8.57472038269043,
		7.468326568603516,
		0.8569065928459168]
	},
	{
		"bufferView":3,
		"type":"VEC3",
		"componentType":5126,
		"count":6240,
		"byteOffset":12,
		"min":[-1.0,
		-0.998612642288208,
		-0.9986093044281006],
		"max":[1.0,
		0.9986093044281006,
		0.9986093044281006]
	},
	{
		"bufferView":3,
		"type":"VEC2",
		"componentType":5126,
		"count":6240,
		"byteOffset":24,
		"min":[0.000030517578125,
		-0.9716796875],
		"max":[2.0,
		-0.00027501583099365234]
	},
	{
		"bufferView":4,
		"type":"SCALAR",
		"componentType":5123,
		"count":378,
		"byteOffset":0,
		"min":[0],
		"max":[377]
	},
	{
		"bufferView":5,
		"type":"VEC3",
		"componentType":5126,
		"count":378,
		"byteOffset":0,
		"min":[6.4698638916015629,
		3.4105913639068605,
		0.3179188072681427],
		"max":[8.358763694763184,
		3.456789255142212,
		0.5442216992378235]
	},
	{
		"bufferView":5,
		"type":"VEC3",
		"componentType":5126,
		"count":378,
		"byteOffset":12,
		"min":[-0.33591243624687197,
		-0.9999690055847168,
		-0.0917205661535263],
		"max":[0.33591243624687197,
		-0.9418923854827881,
		0.08531291037797928]
	},
	{
		"bufferView":5,
		"type":"VEC2",
		"componentType":5126,
		"count":378,
		"byteOffset":24,
		"min":[0.006712913513183594,
		-0.9920501708984375],
		"max":[0.9920501708984375,
		-0.007688999176025391]
	},
	{
		"bufferView":6,
		"type":"SCALAR",
		"componentType":5123,
		"count":336,
		"byteOffset":0,
		"min":[0],
		"max":[335]
	},
	{
		"bufferView":7,
		"type":"VEC3",
		"componentType":5126,
		"count":336,
		"byteOffset":0,
		"min":[6.3856377601623539,
		7.788013458251953,
		0.49833670258522036],
		"max":[8.44299030303955,
		7.854196548461914,
		0.585932731628418]
	},
	{
		"bufferView":7,
		"type":"VEC3",
		"componentType":5126,
		"count":336,
		"byteOffset":12,
		"min":[-0.8972690105438232,
		0.43799328804016116,
		-0.20968972146511079],
		"max":[0.8972690105438232,
		0.9863680005073547,
		0.28488975763320925]
	},
	{
		"bufferView":7,
		"type":"VEC2",
		"componentType":5126,
		"count":336,
		"byteOffset":24,
		"min":[0.07648277282714844,
		-0.9912109375],
		"max":[0.90264892578125,
		-0.009742975234985352]
	},
	{
		"bufferView":8,
		"type":"SCALAR",
		"componentType":5123,
		"count":144,
		"byteOffset":0,
		"min":[0],
		"max":[143]
	},
	{
		"bufferView":9,
		"type":"VEC3",
		"componentType":5126,
		"count":144,
		"byteOffset":0,
		"min":[6.912386894226074,
		4.630240440368652,
		0.8241316676139832],
		"max":[7.916236877441406,
		5.1082916259765629,
		1.1224454641342164]
	},
	{
		"bufferView":9,
		"type":"VEC3",
		"componentType":5126,
		"count":144,
		"byteOffset":12,
		"min":[-0.6635522842407227,
		-0.6947506666183472,
		0.598416805267334],
		"max":[0.6635429263114929,
		-0.44898298382759097,
		0.7251063585281372]
	},
	{
		"bufferView":9,
		"type":"VEC2",
		"componentType":5126,
		"count":144,
		"byteOffset":24,
		"min":[0.000030517578125,
		-1.0],
		"max":[1.0,
		0.000030517578125]
	}],
	"bufferViews":[{
		"buffer":0,
		"byteOffset":0,
		"byteLength":43128,
		"target":34963
	},
	{
		"buffer":0,
		"byteOffset":43128,
		"byteLength":690048,
		"target":34962,
		"byteStride":32
	},
	{
		"buffer":1,
		"byteOffset":0,
		"byteLength":12480,
		"target":34963
	},
	{
		"buffer":1,
		"byteOffset":12480,
		"byteLength":199680,
		"target":34962,
		"byteStride":32
	},
	{
		"buffer":2,
		"byteOffset":0,
		"byteLength":756,
		"target":34963
	},
	{
		"buffer":2,
		"byteOffset":756,
		"byteLength":12096,
		"target":34962,
		"byteStride":32
	},
	{
		"buffer":3,
		"byteOffset":0,
		"byteLength":672,
		"target":34963
	},
	{
		"buffer":3,
		"byteOffset":672,
		"byteLength":10752,
		"target":34962,
		"byteStride":32
	},
	{
		"buffer":4,
		"byteOffset":0,
		"byteLength":288,
		"target":34963
	},
	{
		"buffer":4,
		"byteOffset":288,
		"byteLength":4608,
		"target":34962,
		"byteStride":32
	}],
	"buffers":[{
		"uri":"data:application/octet-stream;base64,",
		"byteLength":733176
	},
	{
		"uri":"data:application/octet-stream;base64,",
		"byteLength":212160
	},
	{
		"uri":"data:application/octet-stream;base64,",
		"byteLength":12852
	},
	{
		"uri":"data:application/octet-stream;base64,",
		"byteLength":11424
	},
	{
		"uri":"data:application/octet-stream;base64,",
		"byteLength":4896
	}],
	"images":[{
		"uri":"data:image/png;base64,"
	},
	{
		"uri":"data:image/png;base64,"
	},
	{
		"uri":"data:image/png;base64,"
	},
	{
		"uri":"data:image/png;base64,"
	},
	{
		"uri":"data:image/png;base64,"
	}],
	"samplers":[{
		"magFilter":9729,
		"minFilter":9729,
		"wrapS":10497,
		"wrapT":10497
	},
	{
		"magFilter":9729,
		"minFilter":9729,
		"wrapS":10497,
		"wrapT":10497
	},
	{
		"magFilter":9729,
		"minFilter":9729,
		"wrapS":10497,
		"wrapT":10497
	},
	{
		"magFilter":9729,
		"minFilter":9729,
		"wrapS":10497,
		"wrapT":10497
	},
	{
		"magFilter":9729,
		"minFilter":9729,
		"wrapS":10497,
		"wrapT":10497
	}],
	"textures":[{
		"sampler":0,
		"source":0
	},
	{
		"sampler":1,
		"source":1
	},
	{
		"sampler":2,
		"source":2
	},
	{
		"sampler":3,
		"source":3
	},
	{
		"sampler":4,
		"source":4
	}],
	"materials":[{
		"pbrMetallicRoughness":{
			"baseColorTexture":{
				"index":0
			},
			"baseColorFactor":[1.0,
			1.0,
			1.0,
			1.0],
			"metallicFactor":0.2,
			"roughnessFactor":0.0
		},
		"emissiveFactor":[0.0,
		0.0,
		0.0],
		"alphaMode":"OPAQUE",
		"doubleSided":true,
		"name":"material_0"
	},
	{
		"pbrMetallicRoughness":{
			"baseColorTexture":{
				"index":1
			},
			"baseColorFactor":[1.0,
			1.0,
			1.0,
			1.0],
			"metallicFactor":0.2,
			"roughnessFactor":0.5
		},
		"emissiveFactor":[0.0,
		0.0,
		0.0],
		"alphaMode":"OPAQUE",
		"doubleSided":true,
		"name":"material_1"
	},
	{
		"pbrMetallicRoughness":{
			"baseColorTexture":{
				"index":2
			},
			"baseColorFactor":[1.0,
			1.0,
			1.0,
			1.0],
			"metallicFactor":0.0,
			"roughnessFactor":1.0
		},
		"emissiveFactor":[0.0,
		0.0,
		0.0],
		"alphaMode":"OPAQUE",
		"doubleSided":true,
		"name":"material_2"
	},
	{
		"pbrMetallicRoughness":{
			"baseColorTexture":{
				"index":3
			},
			"baseColorFactor":[1.0,
			1.0,
			1.0,
			1.0],
			"metallicFactor":0.0,
			"roughnessFactor":1.0
		},
		"emissiveFactor":[0.0,
		0.0,
		0.0],
		"alphaMode":"OPAQUE",
		"doubleSided":true,
		"name":"material_3"
	},
	{
		"pbrMetallicRoughness":{
			"baseColorTexture":{
				"index":4
			},
			"baseColorFactor":[1.0,
			1.0,
			1.0,
			1.0],
			"metallicFactor":0.0,
			"roughnessFactor":0.4
		},
		"emissiveFactor":[0.0,
		0.0,
		0.0],
		"alphaMode":"OPAQUE",
		"doubleSided":true,
		"name":"material_4"
	}]
}