{
	"asset":{
		"version":"2.0",
		"generator":"Maxon Cinema 4D 2025.3.1 (#200000219)"
	},
	"scenes":[{
		"nodes":[0]
	}],
	"materials":[{
		"pbrMetallicRoughness":{
			"baseColorFactor":[1.0,
			0.38039215686274516,
			0.0,
			1.0],
			"metallicFactor":0.0,
			"roughnessFactor":0.20000000298023225
		},
		"emissiveFactor":[0.0,
		0.0,
		0.0],
		"alphaMode":"OPAQUE",
		"doubleSided":true,
		"name":"RS Standard"
	}],
	"nodes":[{
		"name":"Text",
		"children":[1]
	},
	{
		"name":"1",
		"translation":[-7.66259765625,
		0.0,
		0.0],
		"rotation":[0.0,
		0.0,
		0.0,
		-1.0],
		"scale":[1.0,
		1.0,
		1.0],
		"children":[2]
	},
	{
		"name":"cassettes",
		"children":[3,
		4,
		5,
		6,
		7,
		8,
		9,
		10,
		11]
	},
	{
		"name":"c",
		"mesh":0
	},
	{
		"name":"a",
		"mesh":1,
		"translation":[1.5302734375,
		0.0,
		0.0],
		"rotation":[0.0,
		0.0,
		0.0,
		-1.0],
		"scale":[1.0,
		1.0,
		1.0]
	},
	{
		"name":"s",
		"mesh":2,
		"translation":[3.2373046875,
		0.0,
		0.0],
		"rotation":[0.0,
		0.0,
		0.0,
		-1.0],
		"scale":[1.0,
		1.0,
		1.0]
	},
	{
		"name":"s",
		"mesh":3,
		"translation":[4.978515625,
		0.0,
		0.0],
		"rotation":[0.0,
		0.0,
		0.0,
		-1.0],
		"scale":[1.0,
		1.0,
		1.0]
	},
	{
		"name":"e",
		"mesh":4,
		"translation":[6.7197265625,
		0.0,
		0.0],
		"rotation":[0.0,
		0.0,
		0.0,
		-1.0],
		"scale":[1.0,
		1.0,
		1.0]
	},
	{
		"name":"t",
		"mesh":5,
		"translation":[8.4609375,
		0.0,
		0.0],
		"rotation":[0.0,
		0.0,
		0.0,
		-1.0],
		"scale":[1.0,
		1.0,
		1.0]
	},
	{
		"name":"t",
		"mesh":6,
		"translation":[10.1181640625,
		0.0,
		0.0],
		"rotation":[0.0,
		0.0,
		0.0,
		-1.0],
		"scale":[1.0,
		1.0,
		1.0]
	},
	{
		"name":"e",
		"mesh":7,
		"translation":[11.775390625,
		0.0,
		0.0],
		"rotation":[0.0,
		0.0,
		0.0,
		-1.0],
		"scale":[1.0,
		1.0,
		1.0]
	},
	{
		"name":"s",
		"mesh":8,
		"translation":[13.5166015625,
		0.0,
		0.0],
		"rotation":[0.0,
		0.0,
		0.0,
		-1.0],
		"scale":[1.0,
		1.0,
		1.0]
	}],
	"meshes":[{
		"name":"c",
		"primitives":[{
			"attributes":{
				"POSITION":1,
				"NORMAL":2,
				"TEXCOORD_0":3
			},
			"material":0,
			"indices":0
		}]
	},
	{
		"name":"a",
		"primitives":[{
			"attributes":{
				"POSITION":5,
				"NORMAL":6,
				"TEXCOORD_0":7
			},
			"material":0,
			"indices":4
		}]
	},
	{
		"name":"s",
		"primitives":[{
			"attributes":{
				"POSITION":9,
				"NORMAL":10,
				"TEXCOORD_0":11
			},
			"material":0,
			"indices":8
		}]
	},
	{
		"name":"s",
		"primitives":[{
			"attributes":{
				"POSITION":13,
				"NORMAL":14,
				"TEXCOORD_0":15
			},
			"material":0,
			"indices":12
		}]
	},
	{
		"name":"e",
		"primitives":[{
			"attributes":{
				"POSITION":17,
				"NORMAL":18,
				"TEXCOORD_0":19
			},
			"material":0,
			"indices":16
		}]
	},
	{
		"name":"t",
		"primitives":[{
			"attributes":{
				"POSITION":21,
				"NORMAL":22,
				"TEXCOORD_0":23
			},
			"material":0,
			"indices":20
		}]
	},
	{
		"name":"t",
		"primitives":[{
			"attributes":{
				"POSITION":25,
				"NORMAL":26,
				"TEXCOORD_0":27
			},
			"material":0,
			"indices":24
		}]
	},
	{
		"name":"e",
		"primitives":[{
			"attributes":{
				"POSITION":29,
				"NORMAL":30,
				"TEXCOORD_0":31
			},
			"material":0,
			"indices":28
		}]
	},
	{
		"name":"s",
		"primitives":[{
			"attributes":{
				"POSITION":33,
				"NORMAL":34,
				"TEXCOORD_0":35
			},
			"material":0,
			"indices":32
		}]
	}],
	"accessors":[{
		"bufferView":0,
		"type":"SCALAR",
		"componentType":5123,
		"count":1068,
		"byteOffset":0,
		"min":[0],
		"max":[1067]
	},
	{
		"bufferView":1,
		"type":"VEC3",
		"componentType":5126,
		"count":1068,
		"byteOffset":0,
		"min":[0.07666015625,
		-0.005859375,
		-0.27799999713897707],
		"max":[1.6025390625,
		1.76953125,
		0.0]
	},
	{
		"bufferView":1,
		"type":"VEC3",
		"componentType":5126,
		"count":1068,
		"byteOffset":12,
		"min":[-0.9998912215232849,
		-1.0,
		-1.0],
		"max":[0.9999979734420776,
		1.0,
		1.0]
	},
	{
		"bufferView":1,
		"type":"VEC2",
		"componentType":5126,
		"count":1068,
		"byteOffset":24,
		"min":[0.0,
		0.0],
		"max":[1.0,
		1.0]
	},
	{
		"bufferView":2,
		"type":"SCALAR",
		"componentType":5123,
		"count":684,
		"byteOffset":0,
		"min":[0],
		"max":[683]
	},
	{
		"bufferView":3,
		"type":"VEC3",
		"componentType":5126,
		"count":684,
		"byteOffset":0,
		"min":[-0.0029296875,
		-0.0029296875,
		-0.27799999713897707],
		"max":[1.6915283203125,
		1.78271484375,
		0.0]
	},
	{
		"bufferView":3,
		"type":"VEC3",
		"componentType":5126,
		"count":684,
		"byteOffset":12,
		"min":[-0.9953451752662659,
		-1.0,
		-1.0],
		"max":[0.9997391104698181,
		0.9999378323554993,
		1.0]
	},
	{
		"bufferView":3,
		"type":"VEC2",
		"componentType":5126,
		"count":684,
		"byteOffset":24,
		"min":[0.0,
		0.0],
		"max":[1.0,
		1.0]
	},
	{
		"bufferView":4,
		"type":"SCALAR",
		"componentType":5123,
		"count":2580,
		"byteOffset":0,
		"min":[0],
		"max":[2579]
	},
	{
		"bufferView":5,
		"type":"VEC3",
		"componentType":5126,
		"count":2580,
		"byteOffset":0,
		"min":[0.018203124403953553,
		-0.005859375,
		-0.27799999713897707],
		"max":[1.7324950695037842,
		1.767578125,
		0.0]
	},
	{
		"bufferView":5,
		"type":"VEC3",
		"componentType":5126,
		"count":2580,
		"byteOffset":12,
		"min":[-0.9999203085899353,
		-1.0,
		-1.0],
		"max":[0.9999896287918091,
		1.0,
		1.0]
	},
	{
		"bufferView":5,
		"type":"VEC2",
		"componentType":5126,
		"count":2580,
		"byteOffset":24,
		"min":[0.0,
		0.0],
		"max":[1.0,
		1.0]
	},
	{
		"bufferView":6,
		"type":"SCALAR",
		"componentType":5123,
		"count":2580,
		"byteOffset":0,
		"min":[0],
		"max":[2579]
	},
	{
		"bufferView":7,
		"type":"VEC3",
		"componentType":5126,
		"count":2580,
		"byteOffset":0,
		"min":[0.018203124403953553,
		-0.005859375,
		-0.27799999713897707],
		"max":[1.7324950695037842,
		1.767578125,
		0.0]
	},
	{
		"bufferView":7,
		"type":"VEC3",
		"componentType":5126,
		"count":2580,
		"byteOffset":12,
		"min":[-0.9999203085899353,
		-1.0,
		-1.0],
		"max":[0.9999896287918091,
		1.0,
		1.0]
	},
	{
		"bufferView":7,
		"type":"VEC2",
		"componentType":5126,
		"count":2580,
		"byteOffset":24,
		"min":[0.0,
		0.0],
		"max":[1.0,
		1.0]
	},
	{
		"bufferView":8,
		"type":"SCALAR",
		"componentType":5123,
		"count":252,
		"byteOffset":0,
		"min":[0],
		"max":[251]
	},
	{
		"bufferView":9,
		"type":"VEC3",
		"componentType":5126,
		"count":252,
		"byteOffset":0,
		"min":[-0.0146484375,
		-0.00390625,
		-0.27799999713897707],
		"max":[1.740234375,
		1.7529296875,
		0.0]
	},
	{
		"bufferView":9,
		"type":"VEC3",
		"componentType":5126,
		"count":252,
		"byteOffset":12,
		"min":[-0.9859460592269898,
		-1.0,
		-1.0],
		"max":[0.9961861968040466,
		1.0,
		1.0]
	},
	{
		"bufferView":9,
		"type":"VEC2",
		"componentType":5126,
		"count":252,
		"byteOffset":24,
		"min":[0.0,
		0.0],
		"max":[1.0,
		1.0]
	},
	{
		"bufferView":10,
		"type":"SCALAR",
		"componentType":5123,
		"count":216,
		"byteOffset":0,
		"min":[0],
		"max":[215]
	},
	{
		"bufferView":11,
		"type":"VEC3",
		"componentType":5126,
		"count":216,
		"byteOffset":0,
		"min":[0.23046875,
		-0.00390625,
		-0.27799999713897707],
		"max":[1.73046875,
		1.751953125,
		0.0]
	},
	{
		"bufferView":11,
		"type":"VEC3",
		"componentType":5126,
		"count":216,
		"byteOffset":12,
		"min":[-0.9999791383743286,
		-1.0,
		-1.0],
		"max":[0.9963110685348511,
		1.0,
		1.0]
	},
	{
		"bufferView":11,
		"type":"VEC2",
		"componentType":5126,
		"count":216,
		"byteOffset":24,
		"min":[0.0,
		0.0],
		"max":[1.0,
		1.0]
	},
	{
		"bufferView":12,
		"type":"SCALAR",
		"componentType":5123,
		"count":216,
		"byteOffset":0,
		"min":[0],
		"max":[215]
	},
	{
		"bufferView":13,
		"type":"VEC3",
		"componentType":5126,
		"count":216,
		"byteOffset":0,
		"min":[0.23046875,
		-0.00390625,
		-0.27799999713897707],
		"max":[1.73046875,
		1.751953125,
		0.0]
	},
	{
		"bufferView":13,
		"type":"VEC3",
		"componentType":5126,
		"count":216,
		"byteOffset":12,
		"min":[-0.9999791383743286,
		-1.0,
		-1.0],
		"max":[0.9963110685348511,
		1.0,
		1.0]
	},
	{
		"bufferView":13,
		"type":"VEC2",
		"componentType":5126,
		"count":216,
		"byteOffset":24,
		"min":[0.0,
		0.0],
		"max":[1.0,
		1.0]
	},
	{
		"bufferView":14,
		"type":"SCALAR",
		"componentType":5123,
		"count":252,
		"byteOffset":0,
		"min":[0],
		"max":[251]
	},
	{
		"bufferView":15,
		"type":"VEC3",
		"componentType":5126,
		"count":252,
		"byteOffset":0,
		"min":[-0.0146484375,
		-0.00390625,
		-0.27799999713897707],
		"max":[1.740234375,
		1.7529296875,
		0.0]
	},
	{
		"bufferView":15,
		"type":"VEC3",
		"componentType":5126,
		"count":252,
		"byteOffset":12,
		"min":[-0.9859460592269898,
		-1.0,
		-1.0],
		"max":[0.9961861968040466,
		1.0,
		1.0]
	},
	{
		"bufferView":15,
		"type":"VEC2",
		"componentType":5126,
		"count":252,
		"byteOffset":24,
		"min":[0.0,
		0.0],
		"max":[1.0,
		1.0]
	},
	{
		"bufferView":16,
		"type":"SCALAR",
		"componentType":5123,
		"count":2580,
		"byteOffset":0,
		"min":[0],
		"max":[2579]
	},
	{
		"bufferView":17,
		"type":"VEC3",
		"componentType":5126,
		"count":2580,
		"byteOffset":0,
		"min":[0.018203124403953553,
		-0.005859375,
		-0.27799999713897707],
		"max":[1.7324950695037842,
		1.767578125,
		0.0]
	},
	{
		"bufferView":17,
		"type":"VEC3",
		"componentType":5126,
		"count":2580,
		"byteOffset":12,
		"min":[-0.9999203085899353,
		-1.0,
		-1.0],
		"max":[0.9999896287918091,
		1.0,
		1.0]
	},
	{
		"bufferView":17,
		"type":"VEC2",
		"componentType":5126,
		"count":2580,
		"byteOffset":24,
		"min":[0.0,
		0.0],
		"max":[1.0,
		1.0]
	}],
	"bufferViews":[{
		"buffer":0,
		"byteOffset":0,
		"byteLength":2136,
		"target":34963
	},
	{
		"buffer":0,
		"byteOffset":2136,
		"byteLength":34176,
		"target":34962,
		"byteStride":32
	},
	{
		"buffer":1,
		"byteOffset":0,
		"byteLength":1368,
		"target":34963
	},
	{
		"buffer":1,
		"byteOffset":1368,
		"byteLength":21888,
		"target":34962,
		"byteStride":32
	},
	{
		"buffer":2,
		"byteOffset":0,
		"byteLength":5160,
		"target":34963
	},
	{
		"buffer":2,
		"byteOffset":5160,
		"byteLength":82560,
		"target":34962,
		"byteStride":32
	},
	{
		"buffer":3,
		"byteOffset":0,
		"byteLength":5160,
		"target":34963
	},
	{
		"buffer":3,
		"byteOffset":5160,
		"byteLength":82560,
		"target":34962,
		"byteStride":32
	},
	{
		"buffer":4,
		"byteOffset":0,
		"byteLength":504,
		"target":34963
	},
	{
		"buffer":4,
		"byteOffset":504,
		"byteLength":8064,
		"target":34962,
		"byteStride":32
	},
	{
		"buffer":5,
		"byteOffset":0,
		"byteLength":432,
		"target":34963
	},
	{
		"buffer":5,
		"byteOffset":432,
		"byteLength":6912,
		"target":34962,
		"byteStride":32
	},
	{
		"buffer":6,
		"byteOffset":0,
		"byteLength":432,
		"target":34963
	},
	{
		"buffer":6,
		"byteOffset":432,
		"byteLength":6912,
		"target":34962,
		"byteStride":32
	},
	{
		"buffer":7,
		"byteOffset":0,
		"byteLength":504,
		"target":34963
	},
	{
		"buffer":7,
		"byteOffset":504,
		"byteLength":8064,
		"target":34962,
		"byteStride":32
	},
	{
		"buffer":8,
		"byteOffset":0,
		"byteLength":5160,
		"target":34963
	},
	{
		"buffer":8,
		"byteOffset":5160,
		"byteLength":82560,
		"target":34962,
		"byteStride":32
	}],
	"buffers":[{
		"uri":"data:application/octet-stream;base64,",
		"byteLength":36312
	},
	{
		"uri":"data:application/octet-stream;base64,",
		"byteLength":23256
	},
	{
		"uri":"data:application/octet-stream;base64,",
		"byteLength":87720
	},
	{
		"uri":"data:application/octet-stream;base64,",
		"byteLength":87720
	},
	{
		"uri":"data:application/octet-stream;base64,",
		"byteLength":8568
	},
	{
		"uri":"data:application/octet-stream;base64,",
		"byteLength":7344
	},
	{
		"uri":"data:application/octet-stream;base64,",
		"byteLength":7344
	},
	{
		"uri":"data:application/octet-stream;base64,",
		"byteLength":8568
	},
	{
		"uri":"data:application/octet-stream;base64,",
		"byteLength":87720
	}]
}