{
	"asset":{
		"version":"2.0",
		"generator":"Sketchfab-16.54.0",
		"copyright":""
	},
	"scenes":[{
		"nodes":[0]
	}],
	"nodes":[{
		"name":"Sketchfab_Scene",
		"translation":[0.0,
		0.0,
		0.0],
		"rotation":[4.329780301713277e-17,
		0.7071067690849304,
		0.7071067690849304,
		-4.329780301713277e-17],
		"scale":[1.0,
		1.0,
		1.0],
		"children":[1]
	},
	{
		"name":"Sketchfab_model",
		"translation":[0.0,
		0.0,
		0.0],
		"rotation":[0.7071067690849304,
		0.0,
		0.0,
		-0.7071067690849304],
		"scale":[1.0,
		1.0,
		1.0],
		"children":[2]
	},
	{
		"name":"0bfd9ca6c34048e0a32b05bdf1fcf2ff.fbx",
		"translation":[0.0,
		0.0,
		0.0],
		"rotation":[-0.7071067690849304,
		0.0,
		0.0,
		-0.7071067690849304],
		"scale":[0.009999999776482582,
		0.009999999776482582,
		0.009999999776482582],
		"children":[3]
	},
	{
		"name":"RootNode",
		"children":[4]
	},
	{
		"name":"Cube",
		"translation":[0.0,
		0.0,
		0.0],
		"rotation":[0.7071067690849304,
		0.0,
		0.0,
		-0.7071067690849304],
		"scale":[139.2147674560547,
		185.54684448242188,
		5.573038578033447],
		"children":[5]
	},
	{
		"name":"Cube_Material.003_0",
		"mesh":0
	}],
	"meshes":[{
		"name":"Cube_Material.003_0",
		"primitives":[{
			"attributes":{
				"POSITION":1,
				"NORMAL":2,
				"TEXCOORD_0":3
			},
			"indices":0,
			"material":0
		}]
	}],
	"accessors":[{
		"max":[35],
		"bufferView":0,
		"min":[0],
		"componentType":5123,
		"type":"SCALAR",
		"count":36,
		"byteOffset":0
	},
	{
		"max":[0.8194279670715332,
		0.7737099528312683,
		1.0],
		"bufferView":1,
		"min":[-0.7262475490570068,
		-0.8421527743339539,
		-1.0],
		"componentType":5126,
		"type":"VEC3",
		"count":36,
		"byteOffset":0
	},
	{
		"max":[1.0,
		1.0,
		1.0],
		"bufferView":1,
		"min":[-1.0,
		-1.0,
		-1.0],
		"componentType":5126,
		"type":"VEC3",
		"count":36,
		"byteOffset":12
	},
	{
		"max":[0.8407745361328125,
		0.918243408203125],
		"bufferView":1,
		"min":[0.15921783447265626,
		0.03988170623779297],
		"componentType":5126,
		"type":"VEC2",
		"count":36,
		"byteOffset":24
	}],
	"bufferViews":[{
		"buffer":0,
		"byteOffset":0,
		"byteLength":72,
		"target":34963
	},
	{
		"buffer":0,
		"byteOffset":72,
		"byteLength":1152,
		"target":34962,
		"byteStride":32
	}],
	"buffers":[{
		"uri":"data:application/octet-stream;base64,",
		"byteLength":1224
	}],
	"images":[{
		"uri":"data:image/png;base64,"
	}],
	"samplers":[{
		"magFilter":9729,
		"minFilter":9729,
		"wrapS":10497,
		"wrapT":10497
	}],
	"textures":[{
		"sampler":0,
		"source":0
	}],
	"materials":[{
		"pbrMetallicRoughness":{
			"baseColorTexture":{
				"index":0
			},
			"baseColorFactor":[1.0,
			1.0,
			1.0,
			1.0],
			"metallicFactor":0.0,
			"roughnessFactor":0.8211145618000169
		},
		"emissiveFactor":[0.0,
		0.0,
		0.0],
		"alphaMode":"OPAQUE",
		"doubleSided":true,
		"name":"Material.003"
	}]
}