{
	"asset":{
		"version":"2.0",
		"generator":"Sketchfab-16.68.0",
		"copyright":""
	},
	"scenes":[{
		"nodes":[0]
	}],
	"nodes":[{
		"name":"Sketchfab_Scene",
		"translation":[0.0,
		0.0,
		0.0],
		"rotation":[0.5,
		-0.5,
		-0.5,
		0.5],
		"scale":[1.0,
		1.0,
		1.0],
		"children":[1]
	},
	{
		"name":"Sketchfab_model",
		"translation":[0.0,
		0.0,
		0.0],
		"rotation":[0.7071067690849304,
		0.0,
		0.0,
		-0.7071067690849304],
		"scale":[1.0,
		1.0,
		1.0],
		"children":[2]
	},
	{
		"name":"root",
		"children":[3]
	},
	{
		"name":"GLTF_SceneRootNode",
		"translation":[0.0,
		0.0,
		0.0],
		"rotation":[-0.7071067690849304,
		0.0,
		0.0,
		-0.7071067690849304],
		"scale":[1.0,
		1.0,
		1.0],
		"children":[4]
	},
	{
		"name":"Cube_0",
		"translation":[0.0,
		0.0,
		0.0],
		"rotation":[0.0,
		0.0,
		0.0,
		-1.0],
		"scale":[1.0,
		0.006302793975919485,
		0.6685606837272644],
		"children":[5]
	},
	{
		"name":"Object_4",
		"mesh":0
	}],
	"meshes":[{
		"name":"Object_4",
		"primitives":[{
			"attributes":{
				"POSITION":1,
				"NORMAL":2,
				"TEXCOORD_0":3
			},
			"indices":0,
			"material":0
		}]
	}],
	"accessors":[{
		"max":[35],
		"bufferView":0,
		"min":[0],
		"componentType":5123,
		"type":"SCALAR",
		"count":36,
		"byteOffset":0
	},
	{
		"max":[1.0,
		1.0,
		1.0],
		"bufferView":1,
		"min":[-1.0,
		-1.0,
		-1.0],
		"componentType":5126,
		"type":"VEC3",
		"count":36,
		"byteOffset":0
	},
	{
		"max":[0.5773503184318543,
		0.5773503184318543,
		0.5773503184318543],
		"bufferView":1,
		"min":[-0.5773503184318543,
		-0.5773503184318543,
		-0.5773503184318543],
		"componentType":5126,
		"type":"VEC3",
		"count":36,
		"byteOffset":12
	},
	{
		"max":[1.01531982421875,
		1.00177001953125],
		"bufferView":1,
		"min":[-0.00020766258239746094,
		-0.0008931159973144531],
		"componentType":5126,
		"type":"VEC2",
		"count":36,
		"byteOffset":24
	}],
	"bufferViews":[{
		"buffer":0,
		"byteOffset":0,
		"byteLength":72,
		"target":34963
	},
	{
		"buffer":0,
		"byteOffset":72,
		"byteLength":1152,
		"target":34962,
		"byteStride":32
	}],
	"buffers":[{
		"uri":"data:application/octet-stream;base64,",
		"byteLength":1224
	}],
	"images":[{
		"uri":"data:image/png;base64,"
	}],
	"samplers":[{
		"magFilter":9729,
		"minFilter":9729,
		"wrapS":10497,
		"wrapT":10497
	}],
	"textures":[{
		"sampler":0,
		"source":0
	}],
	"materials":[{
		"pbrMetallicRoughness":{
			"baseColorTexture":{
				"index":0
			},
			"baseColorFactor":[1.0,
			1.0,
			1.0,
			1.0],
			"metallicFactor":0.108333,
			"roughnessFactor":0.14476234594238764
		},
		"emissiveFactor":[0.0,
		0.0,
		0.0],
		"alphaMode":"OPAQUE",
		"doubleSided":true,
		"name":"Material"
	}]
}