{
  "accessors": [
    {
      "bufferView": 2,
      "componentType": 5126,
      "count": 140,
      "max": [
        0.07999999821186066,
        0.33500000834465027,
        0.5799999833106995
      ],
      "min": [
        -0.07000000029802322,
        0.109375,
        -0.5799999833106995
      ],
      "type": "VEC3"
    },
    {
      "bufferView": 2,
      "byteOffset": 1680,
      "componentType": 5126,
      "count": 140,
      "max": [
        0.0,
        0.0,
        1.0
      ],
      "min": [
        0.0,
        0.0,
        -1.0
      ],
      "type": "VEC3"
    },
    {
      "bufferView": 3,
      "componentType": 5126,
      "count": 140,
      "max": [
        1.0,
        0.003752774791792035,
        0.0,
        1.0
      ],
      "min": [
        -1.0,
        -0.005037756636738777,
        0.0,
        1.0
      ],
      "type": "VEC4"
    },
    {
      "bufferView": 1,
      "componentType": 5126,
      "count": 140,
      "max": [
        0.9778609871864319,
        0.8804979920387268
      ],
      "min": [
        0.40067198872566223,
        0.6492819786071777
      ],
      "type": "VEC2"
    },
    {
      "bufferView": 0,
      "componentType": 5125,
      "count": 420,
      "type": "SCALAR"
    },
    {
      "bufferView": 2,
      "byteOffset": 3360,
      "componentType": 5126,
      "count": 278,
      "max": [
        0.07999999821186066,
        0.3449999988079071,
        0.5799999833106995
      ],
      "min": [
        -0.07999999821186066,
        -0.3449999988079071,
        -0.5799999833106995
      ],
      "type": "VEC3"
    },
    {
      "bufferView": 2,
      "byteOffset": 6696,
      "componentType": 5126,
      "count": 278,
      "max": [
        1.0,
        1.0,
        1.0
      ],
      "min": [
        -1.0,
        -1.0,
        -1.0
      ],
      "type": "VEC3"
    },
    {
      "bufferView": 3,
      "byteOffset": 2240,
      "componentType": 5126,
      "count": 278,
      "max": [
        1.0,
        0.811278760433197,
        1.0,
        1.0
      ],
      "min": [
        -1.0,
        -0.8112787008285522,
        -1.0,
        1.0
      ],
      "type": "VEC4"
    },
    {
      "bufferView": 1,
      "byteOffset": 1120,
      "componentType": 5126,
      "count": 278,
      "max": [
        0.9934459924697876,
        0.9942610263824463
      ],
      "min": [
        0.005859000142663717,
        0.0
      ],
      "type": "VEC2"
    },
    {
      "bufferView": 0,
      "byteOffset": 1680,
      "componentType": 5125,
      "count": 777,
      "type": "SCALAR"
    },
    {
      "bufferView": 2,
      "byteOffset": 10032,
      "componentType": 5126,
      "count": 12,
      "max": [
        0.07999999821186066,
        0.17499999701976776,
        0.5799999833106995
      ],
      "min": [
        0.07000000029802322,
        0.1706250011920929,
        -0.5799999833106995
      ],
      "type": "VEC3"
    },
    {
      "bufferView": 2,
      "byteOffset": 10176,
      "componentType": 5126,
      "count": 12,
      "max": [
        0.0,
        0.0,
        1.0
      ],
      "min": [
        0.0,
        0.0,
        -1.0
      ],
      "type": "VEC3"
    },
    {
      "bufferView": 3,
      "byteOffset": 6688,
      "componentType": 5126,
      "count": 12,
      "max": [
        1.0,
        0.0,
        0.0,
        1.0
      ],
      "min": [
        -1.0,
        0.0,
        0.0,
        1.0
      ],
      "type": "VEC4"
    },
    {
      "bufferView": 1,
      "byteOffset": 3344,
      "componentType": 5126,
      "count": 12,
      "max": [
        0.48595699667930603,
        0.8416759967803955
      ],
      "min": [
        0.3271520137786865,
        0.7198529839515686
      ],
      "type": "VEC2"
    },
    {
      "bufferView": 0,
      "byteOffset": 4788,
      "componentType": 5125,
      "count": 12,
      "type": "SCALAR"
    },
    {
      "bufferView": 2,
      "byteOffset": 10320,
      "componentType": 5126,
      "count": 834,
      "max": [
        0.07999999821186066,
        0.3449999988079071,
        0.5899999737739563
      ],
      "min": [
        -0.07999999821186066,
        -0.3449999988079071,
        -0.5899999737739563
      ],
      "type": "VEC3"
    },
    {
      "bufferView": 2,
      "byteOffset": 20328,
      "componentType": 5126,
      "count": 834,
      "max": [
        1.0,
        1.0,
        1.0
      ],
      "min": [
        -1.0,
        -1.0,
        -1.0
      ],
      "type": "VEC3"
    },
    {
      "bufferView": 3,
      "byteOffset": 6880,
      "componentType": 5126,
      "count": 834,
      "max": [
        1.0,
        0.8264508843421936,
        1.0,
        1.0
      ],
      "min": [
        -1.0,
        -0.8264509439468384,
        -1.0,
        1.0
      ],
      "type": "VEC4"
    },
    {
      "bufferView": 1,
      "byteOffset": 3440,
      "componentType": 5126,
      "count": 834,
      "max": [
        0.9993060231208801,
        0.9981030225753784
      ],
      "min": [
        0.0,
        0.0
      ],
      "type": "VEC2"
    },
    {
      "bufferView": 0,
      "byteOffset": 4836,
      "componentType": 5125,
      "count": 2187,
      "type": "SCALAR"
    }
  ],
  "asset": {
    "extras": {
      "author": "Geug (https://sketchfab.com/Geug)",
      "license": "CC-BY-4.0 (http://creativecommons.org/licenses/by/4.0/)",
      "source": "https://sketchfab.com/3d-models/cassette-case-b13575b03b954de09560f164bed55e1b",
      "title": "Cassette Case"
    },
    "generator": "Sketchfab-16.31.0",
    "version": "2.0"
  },
  "bufferViews": [
    {
      "buffer": 0,
      "byteLength": 13584,
      "name": "floatBufferViews",
      "target": 34963
    },
    {
      "buffer": 0,
      "byteLength": 10112,
      "byteOffset": 13584,
      "byteStride": 8,
      "name": "floatBufferViews",
      "target": 34962
    },
    {
      "buffer": 0,
      "byteLength": 30336,
      "byteOffset": 23696,
      "byteStride": 12,
      "name": "floatBufferViews",
      "target": 34962
    },
    {
      "buffer": 0,
      "byteLength": 20224,
      "byteOffset": 54032,
      "byteStride": 16,
      "name": "floatBufferViews",
      "target": 34962
    }
  ],
  "buffers": [
    {
      "byteLength": 74256,
      "uri": "scene.bin"
    }
  ],
  "extensionsUsed": [
    "KHR_materials_clearcoat"
  ],
  "images": [
    {
      "uri": "textures/DefaultMaterial_baseColor.png"
    },
    {
      "uri": "textures/DefaultMaterial_metallicRoughness.png"
    },
    {
      "uri": "textures/DefaultMaterial_emissive.jpeg"
    },
    {
      "uri": "textures/DefaultMaterial_normal.png"
    },
    {
      "uri": "textures/DefaultMaterial_clearcoat_normal.png"
    }
  ],
  "materials": [
    {
      "alphaMode": "BLEND",
      "doubleSided": true,
      "emissiveFactor": [
        1.0,
        1.0,
        1.0
      ],
      "emissiveTexture": {
        "index": 2
      },
      "extensions": {
        "KHR_materials_clearcoat": {
          "clearcoatFactor": 1.0,
          "clearcoatNormalTexture": {
            "index": 4
          },
          "clearcoatRoughnessFactor": 0.0
        }
      },
      "name": "DefaultMaterial",
      "normalTexture": {
        "index": 3
      },
      "occlusionTexture": {
        "index": 1
      },
      "pbrMetallicRoughness": {
        "baseColorTexture": {
          "index": 0
        },
        "metallicRoughnessTexture": {
          "index": 1
        }
      }
    }
  ],
  "meshes": [
    {
      "name": "defaultMaterial",
      "primitives": [
        {
          "attributes": {
            "NORMAL": 1,
            "POSITION": 0,
            "TANGENT": 2,
            "TEXCOORD_0": 3
          },
          "indices": 4,
          "material": 0,
          "mode": 4
        }
      ]
    },
    {
      "name": "defaultMaterial",
      "primitives": [
        {
          "attributes": {
            "NORMAL": 6,
            "POSITION": 5,
            "TANGENT": 7,
            "TEXCOORD_0": 8
          },
          "indices": 9,
          "material": 0,
          "mode": 4
        }
      ]
    },
    {
      "name": "defaultMaterial",
      "primitives": [
        {
          "attributes": {
            "NORMAL": 11,
            "POSITION": 10,
            "TANGENT": 12,
            "TEXCOORD_0": 13
          },
          "indices": 14,
          "material": 0,
          "mode": 4
        }
      ]
    },
    {
      "name": "defaultMaterial",
      "primitives": [
        {
          "attributes": {
            "NORMAL": 16,
            "POSITION": 15,
            "TANGENT": 17,
            "TEXCOORD_0": 18
          },
          "indices": 19,
          "material": 0,
          "mode": 4
        }
      ]
    }
  ],
  "nodes": [
    {
      "children": [
        1
      ],
      "matrix": [
        1.0,
        0.0,
        0.0,
        0.0,
        0.0,
        2.220446049250313e-16,
        -1.0,
        0.0,
        0.0,
        1.0,
        2.220446049250313e-16,
        0.0,
        0.0,
        0.0,
        0.0,
        1.0
      ],
      "name": "Sketchfab_model"
    },
    {
      "children": [
        2,
        4,
        6,
        8
      ],
      "matrix": [
        1.0,
        0.0,
        0.0,
        0.0,
        0.0,
        -4.371139006309477e-08,
        0.999999999999999,
        0.0,
        0.0,
        -0.999999999999999,
        -4.371139006309477e-08,
        0.0,
        0.0,
        0.0,
        0.0,
        1.0
      ],
      "name": "Collada visual scene group"
    },
    {
      "children": [
        3
      ],
      "name": "__grp"
    },
    {
      "mesh": 0,
      "name": "defaultMaterial"
    },
    {
      "children": [
        5
      ],
      "name": "cover"
    },
    {
      "mesh": 1,
      "name": "defaultMaterial"
    },
    {
      "children": [
        7
      ],
      "name": "__grp"
    },
    {
      "mesh": 2,
      "name": "defaultMaterial"
    },
    {
      "children": [
        9
      ],
      "name": "locker"
    },
    {
      "mesh": 3,
      "name": "defaultMaterial"
    }
  ],
  "samplers": [
    {
      "magFilter": 9729,
      "minFilter": 9987,
      "wrapS": 10497,
      "wrapT": 10497
    }
  ],
  "scene": 0,
  "scenes": [
    {
      "name": "Sketchfab_Scene",
      "nodes": [
        0
      ]
    }
  ],
  "textures": [
    {
      "sampler": 0,
      "source": 0
    },
    {
      "sampler": 0,
      "source": 1
    },
    {
      "sampler": 0,
      "source": 2
    },
    {
      "sampler": 0,
      "source": 3
    },
    {
      "sampler": 0,
      "source": 4
    }
  ]
}
